<?xml version="1.0" encoding="UTF-8" standalone="no"?>
<!DOCTYPE svg PUBLIC "-//W3C//DTD SVG 1.1//EN" "http://www.w3.org/Graphics/SVG/1.1/DTD/svg11.dtd">
<svg width="100%" height="100%" viewBox="0 0 927 927" version="1.1" xmlns="http://www.w3.org/2000/svg" xmlns:xlink="http://www.w3.org/1999/xlink" xml:space="preserve" xmlns:serif="http://www.serif.com/" style="fill-rule:evenodd;clip-rule:evenodd;stroke-linecap:round;stroke-linejoin:round;stroke-miterlimit:1.5;">
    <g transform="matrix(1,0,0,1,-128.724,-189.551)">
        <circle cx="592.084" cy="652.91" r="463.36" style="fill:rgb(102,201,179);" custom="background-color"/>
    </g>
    <g transform="matrix(-0.734069,-0.679075,0.679075,-0.734069,363.796,1204.83)">
        <g transform="matrix(0.975542,-0.219814,0.219814,0.975542,-38.2494,76.7219)">
            <text x="325.638px" y="210.241px" style="font-family:'AnimeAce2.0BB', 'Anime Ace 2.0 BB';font-size:40px;fill:white;">S</text>
        </g>
        <g transform="matrix(0.989913,-0.141679,0.141679,0.989913,-25.0722,53.0452)">
            <text x="359.979px" y="202.595px" style="font-family:'AnimeAce2.0BB', 'Anime Ace 2.0 BB';font-size:40px;fill:white;">e</text>
        </g>
        <g transform="matrix(0.997707,-0.0676849,0.0676849,0.997707,-12.5275,26.8395)">
            <text x="389.818px" y="198.293px" style="font-family:'AnimeAce2.0BB', 'Anime Ace 2.0 BB';font-size:40px;fill:white;">a</text>
        </g>
        <g transform="matrix(0.99993,-0.0117925,0.0117925,0.99993,-2.2876,4.92362)">
            <text x="416.365px" y="196.443px" style="font-family:'AnimeAce2.0BB', 'Anime Ace 2.0 BB';font-size:40px;fill:white;">t</text>
        </g>
        <g transform="matrix(0.99887,0.0475316,-0.0475316,0.99887,9.8216,-20.7504)">
            <text x="441.224px" y="196.141px" style="font-family:'AnimeAce2.0BB', 'Anime Ace 2.0 BB';font-size:40px;fill:white;">t</text>
        </g>
        <g transform="matrix(0.993646,0.112548,-0.112548,0.993646,25.1596,-51.1963)">
            <text x="466.018px" y="197.237px" style="font-family:'AnimeAce2.0BB', 'Anime Ace 2.0 BB';font-size:40px;fill:white;">l</text>
        </g>
        <g transform="matrix(0.983756,0.179513,-0.179513,0.983756,43.9598,-85.3048)">
            <text x="493.32px" y="200.242px" style="font-family:'AnimeAce2.0BB', 'Anime Ace 2.0 BB';font-size:40px;fill:white;">e</text>
        </g>
        <g transform="matrix(0.972354,0.233511,-0.233511,0.972354,62.5231,-116.415)">
            <text x="522.911px" y="205.844px" style="font-family:'AnimeAce2.0BB', 'Anime Ace 2.0 BB';font-size:40px;fill:white;">,</text>
        </g>
        <g transform="matrix(0.941762,0.33628,-0.33628,0.941762,104.091,-173.873)">
            <text x="554.037px" y="213.586px" style="font-family:'AnimeAce2.0BB', 'Anime Ace 2.0 BB';font-size:40px;fill:white;">W</text>
        </g>
        <g transform="matrix(0.913205,0.407499,-0.407499,0.913205,142.818,-219.707)">
            <text x="587.171px" y="225.41px" style="font-family:'AnimeAce2.0BB', 'Anime Ace 2.0 BB';font-size:40px;fill:white;">a</text>
        </g>
        <g transform="matrix(0.877703,0.479205,-0.479205,0.877703,189.296,-265.852)">
            <text x="615.501px" y="237.939px" style="font-family:'AnimeAce2.0BB', 'Anime Ace 2.0 BB';font-size:40px;fill:white;">s</text>
        </g>
        <g transform="matrix(0.835403,0.549637,-0.549637,0.835403,246.465,-313.329)">
            <text x="646.382px" y="254.845px" style="font-family:'AnimeAce2.0BB', 'Anime Ace 2.0 BB';font-size:40px;fill:white;">h</text>
        </g>
        <g transform="matrix(0.80797,0.589224,-0.589224,0.80797,289.128,-343.622)">
            <text x="671.748px" y="271.768px" style="font-family:'AnimeAce2.0BB', 'Anime Ace 2.0 BB';font-size:40px;fill:white;">i</text>
        </g>
        <g transform="matrix(0.775471,0.631383,-0.631383,0.775471,328.72,-367.646)">
            <text x="681.278px" y="278.363px" style="font-family:'AnimeAce2.0BB', 'Anime Ace 2.0 BB';font-size:40px;fill:white;">n</text>
        </g>
        <g transform="matrix(0.72182,0.692081,-0.692081,0.72182,403.421,-405.867)">
            <text x="706.586px" y="298.9px" style="font-family:'AnimeAce2.0BB', 'Anime Ace 2.0 BB';font-size:40px;fill:white;">g</text>
        </g>
        <g transform="matrix(0.668479,0.743731,-0.743731,0.668479,483.611,-437.263)">
            <text x="732.281px" y="323.832px" style="font-family:'AnimeAce2.0BB', 'Anime Ace 2.0 BB';font-size:40px;fill:white;">t</text>
        </g>
        <g transform="matrix(0.608981,0.793185,-0.793185,0.608981,564.276,-460.408)">
            <text x="749.108px" y="342.114px" style="font-family:'AnimeAce2.0BB', 'Anime Ace 2.0 BB';font-size:40px;fill:white;">o</text>
        </g>
        <g transform="matrix(0.537652,0.843167,-0.843167,0.537652,672.385,-479.113)">
            <text x="773.063px" y="373.545px" style="font-family:'AnimeAce2.0BB', 'Anime Ace 2.0 BB';font-size:40px;fill:white;">n</text>
        </g>
        <g transform="matrix(0.245063,0.969507,-0.969507,0.245063,1103.64,-433.074)">
            <text x="829.902px" y="492.123px" style="font-family:'AnimeAce2.0BB', 'Anime Ace 2.0 BB';font-size:40px;fill:white;">A</text>
        </g>
        <g transform="matrix(0.169847,0.98547,-0.98547,0.169847,1209.79,-391.94)">
            <text x="837.531px" y="522.099px" style="font-family:'AnimeAce2.0BB', 'Anime Ace 2.0 BB';font-size:40px;fill:white;">n</text>
        </g>
        <g transform="matrix(0.0938919,0.995582,-0.995582,0.0938919,1315.7,-337.096)">
            <text x="843.04px" y="554.26px" style="font-family:'AnimeAce2.0BB', 'Anime Ace 2.0 BB';font-size:40px;fill:white;">y</text>
        </g>
        <g transform="matrix(0.013675,0.999906,-0.999906,0.013675,1417.82,-270.485)">
            <text x="846.014px" y="583.428px" style="font-family:'AnimeAce2.0BB', 'Anime Ace 2.0 BB';font-size:40px;fill:white;">w</text>
        </g>
        <g transform="matrix(-0.0722233,0.997388,-0.997388,-0.0722233,1528.36,-176.826)">
            <text x="846.422px" y="622.432px" style="font-family:'AnimeAce2.0BB', 'Anime Ace 2.0 BB';font-size:40px;fill:white;">h</text>
        </g>
        <g transform="matrix(-0.142459,0.989801,-0.989801,-0.142459,1610.72,-89.8147)">
            <text x="844.264px" y="652.837px" style="font-family:'AnimeAce2.0BB', 'Anime Ace 2.0 BB';font-size:40px;fill:white;">e</text>
        </g>
        <g transform="matrix(-0.215616,0.976478,-0.976478,-0.215616,1687.73,9.62695)">
            <text x="839.996px" y="682.67px" style="font-family:'AnimeAce2.0BB', 'Anime Ace 2.0 BB';font-size:40px;fill:white;">r</text>
        </g>
        <g transform="matrix(-0.286488,0.958084,-0.958084,-0.286488,1754.72,117.891)">
            <text x="833.461px" y="712.339px" style="font-family:'AnimeAce2.0BB', 'Anime Ace 2.0 BB';font-size:40px;fill:white;">e</text>
        </g>
        <g transform="matrix(-0.394893,0.918727,-0.918727,-0.394893,1838,302.919)">
            <text x="819.241px" y="756.745px" style="font-family:'AnimeAce2.0BB', 'Anime Ace 2.0 BB';font-size:40px;fill:white;">A</text>
        </g>
        <g transform="matrix(-0.466186,0.884687,-0.884687,-0.466186,1878.03,437.323)">
            <text x="807.077px" y="785.257px" style="font-family:'AnimeAce2.0BB', 'Anime Ace 2.0 BB';font-size:40px;fill:white;">d</text>
        </g>
        <g transform="matrix(-0.526663,0.850074,-0.850074,-0.526663,1900.79,571.125)">
            <text x="791.391px" y="814.762px" style="font-family:'AnimeAce2.0BB', 'Anime Ace 2.0 BB';font-size:40px;fill:white;">v</text>
        </g>
        <g transform="matrix(-0.582398,0.812904,-0.812904,-0.582398,1911.2,690.548)">
            <text x="778.226px" y="836.181px" style="font-family:'AnimeAce2.0BB', 'Anime Ace 2.0 BB';font-size:40px;fill:white;">e</text>
        </g>
        <g transform="matrix(-0.642023,0.766685,-0.766685,-0.642023,1909.03,829.984)">
            <text x="760.751px" y="860.67px" style="font-family:'AnimeAce2.0BB', 'Anime Ace 2.0 BB';font-size:40px;fill:white;">n</text>
        </g>
        <g transform="matrix(-0.693423,0.720531,-0.720531,-0.693423,1890.78,966.613)">
            <text x="739.748px" y="885.558px" style="font-family:'AnimeAce2.0BB', 'Anime Ace 2.0 BB';font-size:40px;fill:white;">t</text>
        </g>
        <g transform="matrix(-0.73986,0.672761,-0.672761,-0.73986,1865.1,1085.84)">
            <text x="722.615px" y="903.514px" style="font-family:'AnimeAce2.0BB', 'Anime Ace 2.0 BB';font-size:40px;fill:white;">u</text>
        </g>
        <g transform="matrix(-0.788269,0.615331,-0.615331,-0.788269,1819.97,1222.55)">
            <text x="699.649px" y="924.397px" style="font-family:'AnimeAce2.0BB', 'Anime Ace 2.0 BB';font-size:40px;fill:white;">r</text>
        </g>
        <g transform="matrix(-0.830626,0.55683,-0.55683,-0.830626,1762.18,1350.14)">
            <text x="675.749px" y="943.076px" style="font-family:'AnimeAce2.0BB', 'Anime Ace 2.0 BB';font-size:40px;fill:white;">e</text>
        </g>
        <g transform="matrix(-0.872023,0.489465,-0.489465,-0.872023,1688.17,1478.48)">
            <text x="650.802px" y="959.937px" style="font-family:'AnimeAce2.0BB', 'Anime Ace 2.0 BB';font-size:40px;fill:white;">s</text>
        </g>
        <g transform="matrix(-0.928277,0.37189,-0.37189,-0.928277,1533.03,1673.28)">
            <text x="605.158px" y="984.473px" style="font-family:'AnimeAce2.0BB', 'Anime Ace 2.0 BB';font-size:40px;fill:white;">w</text>
        </g>
        <g transform="matrix(-0.949541,0.313642,-0.313642,-0.949541,1422.09,1768.39)">
            <text x="568.798px" y="998.588px" style="font-family:'AnimeAce2.0BB', 'Anime Ace 2.0 BB';font-size:40px;fill:white;">i</text>
        </g>
        <g transform="matrix(-0.962576,0.271012,-0.271012,-0.962576,1366.44,1816.05)">
            <text x="557.83px" y="1002.37px" style="font-family:'AnimeAce2.0BB', 'Anime Ace 2.0 BB';font-size:40px;fill:white;">t</text>
        </g>
        <g transform="matrix(-0.979221,0.202796,-0.202796,-0.979221,1261.49,1889.24)">
            <text x="533.957px" y="1009.25px" style="font-family:'AnimeAce2.0BB', 'Anime Ace 2.0 BB';font-size:40px;fill:white;">h</text>
        </g>
        <g transform="matrix(-0.995068,0.0992001,-0.0992001,-0.995068,1073.98,1982.31)">
            <text x="487.708px" y="1017.86px" style="font-family:'AnimeAce2.0BB', 'Anime Ace 2.0 BB';font-size:40px;fill:white;">t</text>
        </g>
        <g transform="matrix(-0.999546,0.0301165,-0.0301165,-0.999546,956.474,2026.53)">
            <text x="462.975px" y="1020.47px" style="font-family:'AnimeAce2.0BB', 'Anime Ace 2.0 BB';font-size:40px;fill:white;">h</text>
        </g>
        <g transform="matrix(-0.999223,-0.0394204,0.0394204,-0.999223,824.507,2059.11)">
            <text x="432.554px" y="1021.43px" style="font-family:'AnimeAce2.0BB', 'Anime Ace 2.0 BB';font-size:40px;fill:white;">e</text>
        </g>
        <g transform="matrix(-0.988589,-0.150636,0.150636,-0.988589,614.093,2083.84)">
            <text x="385.972px" y="1018.66px" style="font-family:'AnimeAce2.0BB', 'Anime Ace 2.0 BB';font-size:40px;fill:white;">L</text>
        </g>
        <g transform="matrix(-0.98078,-0.195117,0.195117,-0.98078,512.955,2079.29)">
            <text x="358.888px" y="1014.38px" style="font-family:'AnimeAce2.0BB', 'Anime Ace 2.0 BB';font-size:40px;fill:white;">i</text>
        </g>
        <g transform="matrix(-0.969268,-0.246008,0.246008,-0.969268,435.078,2079.07)">
            <text x="347.402px" y="1012.36px" style="font-family:'AnimeAce2.0BB', 'Anime Ace 2.0 BB';font-size:40px;fill:white;">b</text>
        </g>
        <g transform="matrix(-0.946902,-0.321521,0.321521,-0.946902,292.537,2057.07)">
            <text x="316.126px" y="1004.38px" style="font-family:'AnimeAce2.0BB', 'Anime Ace 2.0 BB';font-size:40px;fill:white;">r</text>
        </g>
        <g transform="matrix(-0.920306,-0.391198,0.391198,-0.920306,162.75,2022.48)">
            <text x="287.381px" y="994.663px" style="font-family:'AnimeAce2.0BB', 'Anime Ace 2.0 BB';font-size:40px;fill:white;">a</text>
        </g>
        <g transform="matrix(-0.888459,-0.458956,0.458956,-0.888459,37.8944,1974.32)">
            <text x="258.859px" y="982.555px" style="font-family:'AnimeAce2.0BB', 'Anime Ace 2.0 BB';font-size:40px;fill:white;">r</text>
        </g>
        <g transform="matrix(-0.852544,-0.522656,0.522656,-0.852544,-76.7261,1915.62)">
            <text x="231.863px" y="968.634px" style="font-family:'AnimeAce2.0BB', 'Anime Ace 2.0 BB';font-size:40px;fill:white;">y</text>
        </g>
        <g transform="matrix(-0.78284,-0.622224,0.622224,-0.78284,-243.194,1803.33)">
            <text x="193.09px" y="944.102px" style="font-family:'AnimeAce2.0BB', 'Anime Ace 2.0 BB';font-size:40px;fill:white;">o</text>
        </g>
        <g transform="matrix(-0.729886,-0.683569,0.683569,-0.729886,-347.663,1701.3)">
            <text x="162.306px" y="919.342px" style="font-family:'AnimeAce2.0BB', 'Anime Ace 2.0 BB';font-size:40px;fill:white;">f</text>
        </g>
        <g transform="matrix(-0.649283,-0.760547,0.760547,-0.649283,-460.501,1564.53)">
            <text x="130.482px" y="888.441px" style="font-family:'AnimeAce2.0BB', 'Anime Ace 2.0 BB';font-size:40px;fill:white;">C</text>
        </g>
        <g transform="matrix(-0.582398,-0.812904,0.812904,-0.582398,-528.922,1457.65)">
            <text x="109.947px" y="864.681px" style="font-family:'AnimeAce2.0BB', 'Anime Ace 2.0 BB';font-size:40px;fill:white;">o</text>
        </g>
        <g transform="matrix(-0.509258,-0.860614,0.860614,-0.509258,-585.069,1331.26)">
            <text x="87.022px" y="832.438px" style="font-family:'AnimeAce2.0BB', 'Anime Ace 2.0 BB';font-size:40px;fill:white;">n</text>
        </g>
        <g transform="matrix(-0.437216,-0.899356,0.899356,-0.437216,-622.307,1219.36)">
            <text x="70.362px" y="804.389px" style="font-family:'AnimeAce2.0BB', 'Anime Ace 2.0 BB';font-size:40px;fill:white;">g</text>
        </g>
        <g transform="matrix(-0.361709,-0.932291,0.932291,-0.361709,-645.256,1102.68)">
            <text x="54.844px" y="772.225px" style="font-family:'AnimeAce2.0BB', 'Anime Ace 2.0 BB';font-size:40px;fill:white;">r</text>
        </g>
        <g transform="matrix(-0.292428,-0.956288,0.956288,-0.292428,-654.708,1003.31)">
            <text x="43.827px" y="743.867px" style="font-family:'AnimeAce2.0BB', 'Anime Ace 2.0 BB';font-size:40px;fill:white;">e</text>
        </g>
        <g transform="matrix(-0.215425,-0.97652,0.97652,-0.215425,-655.922,903.343)">
            <text x="34.93px" y="715.168px" style="font-family:'AnimeAce2.0BB', 'Anime Ace 2.0 BB';font-size:40px;fill:white;">s</text>
        </g>
        <g transform="matrix(-0.130946,-0.991389,0.991389,-0.130946,-643.982,796.982)">
            <text x="27.326px" y="680.749px" style="font-family:'AnimeAce2.0BB', 'Anime Ace 2.0 BB';font-size:40px;fill:white;">s</text>
        </g>
    </g>
    <g transform="matrix(1.02216,0,0,1.02216,-99.461,-241.556)">
        <circle cx="546.022" cy="689.635" r="390.365" style="fill:none;stroke:white;stroke-width:9.78px;"/>
    </g>
    <g id="drawings">
        <path d="M271.085,307.903C269.549,306.041 268.868,303.509 269.461,300.98C270.345,297.212 271.743,294.096 274.571,289.565C279.774,281.228 290.772,266.666 315.103,224.448C316.152,222.628 317.875,221.293 319.9,220.733C365.474,208.118 365.421,209.64 411.343,197C414.688,196.079 418.245,197.42 420.151,200.319C436.868,225.752 450.659,230.334 460.786,236.594C469.465,241.959 476.196,248.156 480.583,263.822C486.985,286.687 494.144,301.282 497.353,313.439C499.934,323.221 500.234,331.694 496.881,340.951C493.622,349.947 486.591,359.902 473.51,372.855C467.639,378.669 465.808,382.943 463.396,386.146C459.925,390.757 455.913,394.278 444.455,396.741C422.883,401.378 407.751,406.999 395.351,410.356C380.902,414.267 369.643,415.219 357.261,410.133C347.311,406.046 336.445,397.748 322.405,382.663C314.249,373.9 311.635,376.756 295.76,354.246C293.732,351.37 274.652,323.842 271.57,310.763C271.334,309.762 271.176,308.807 271.085,307.903ZM287.546,298.95C287.606,299.06 287.664,299.172 287.72,299.286C288.991,301.88 288.728,304.83 287.283,307.104C287.805,308.79 288.914,312.169 290.159,314.729C296.203,327.153 307.388,342.973 308.836,345.025C323.831,366.288 326.413,363.485 334.117,371.762C347.792,386.454 357.456,393.962 366.965,396.577C376.128,399.097 384.872,396.841 396.522,393.384C408.133,389.938 422.199,385.16 441.093,381.098C445.224,380.21 447.623,379.39 449.247,378.021C451.023,376.524 451.922,374.587 453.462,372.253C455.439,369.258 457.977,365.719 462.252,361.486C474.611,349.248 480.869,340.719 482.748,332.414C484.547,324.455 482.095,317.009 478.496,307.079C474.819,296.937 469.805,284.671 465.175,268.136C461.457,254.854 455.172,251.691 446.96,247.073C436.96,241.45 424.557,234.37 410.075,213.936C370.601,224.689 367.94,224.104 327.322,235.282C307.302,269.852 296.552,285.294 290.637,294.196C289.372,296.1 288.358,297.617 287.546,298.95Z"/>
        <path d="M547.091,828.211C549.035,829.671 550.294,831.995 550.294,834.612L550.294,840.492L550.031,842.686L549.053,845L547.525,846.809L545.708,848.016L543.148,848.762L540.637,848.662L538.445,847.883L536.665,846.608L535.247,844.852L534.337,842.943C533.712,841.281 532.406,836.598 530.309,826.197C504.743,699.346 419.603,449.197 409.911,404.851C408.968,400.537 411.704,396.27 416.018,395.327C420.331,394.384 424.599,397.121 425.542,401.434C435.24,445.807 520.412,696.109 545.994,823.036C546.37,824.903 546.741,826.639 547.091,828.211Z"/>
        <path d="M329.948,302.845C329.237,303.439 328.207,304.372 327.66,305.208C326.392,307.151 325.18,309.561 326.13,311.515C326.644,312.574 327.974,312.983 329.82,313.35C336.307,314.64 341.233,315.353 344.832,316.649C348.792,318.074 351.648,320.144 353.74,323.157C356.357,326.924 357.861,332.898 357.142,343.494L356.737,345.703L355.725,348.065C355.072,349.234 354.068,350.568 352.758,351.905C348.832,355.915 341.729,360.129 337.956,360.92L335.31,361.178L332.824,360.801L330.273,359.604L327.936,357.263L326.823,354.955L326.405,351.886L326.725,349.614L327.646,347.064C329.442,343.203 333.936,341.45 337.844,343.001L341.287,340.548C341.403,338.117 341.379,336.117 341.164,334.46C341.044,333.538 340.963,332.807 340.599,332.284C340.31,331.868 339.773,331.824 339.213,331.633C338.443,331.372 337.587,331.155 336.644,330.946C333.916,330.338 330.62,329.822 326.701,329.043C319.413,327.595 315.081,324.076 312.599,320.069C310.154,316.123 309.432,311.441 310.2,306.725C311.167,300.793 314.605,294.849 318.889,291.071C323.387,287.106 328.769,285.518 333.568,286.579C338.126,287.587 343.081,290.968 345.855,299.468C347.225,303.665 344.93,308.185 340.732,309.555C336.535,310.925 332.015,308.63 330.645,304.433C330.476,303.916 330.196,303.324 329.948,302.845Z"/>
        <path d="M355.505,318.21C351.136,317.576 348.103,313.514 348.737,309.144C349.371,304.775 353.433,301.742 357.803,302.376C358.789,302.519 363.456,303.22 368.48,302.302C371.145,301.815 374,300.903 376.132,298.787C379.266,295.677 384.336,295.696 387.446,298.83C390.556,301.964 390.537,307.034 387.403,310.144C382.873,314.639 377.014,317.008 371.356,318.042C363.898,319.404 356.969,318.423 355.505,318.21Z"/>
        <path d="M388.274,333.272C390.576,336.482 390.201,340.984 387.243,343.76L385.071,345.219L382.246,345.93L380.148,345.791L377.921,344.996L375.5,343.04L373.704,339.998C370.43,332.439 358.326,290.123 356.425,282.031C355.415,277.733 358.085,273.423 362.383,272.413C366.681,271.404 370.991,274.073 372.001,278.372C373.719,285.686 386.919,328.848 388.274,333.272ZM384.183,330.302C381.118,329.155 378.511,330.013 376.292,332.096C378.476,330.045 381.513,329.459 384.183,330.302Z"/>
        <path d="M400.962,282.128C401.755,281.761 402.622,281.52 403.541,281.431C414.708,280.347 421.244,283.591 425.045,287.874C430.559,294.086 430.756,304.311 427.975,313.601C425.932,320.426 422.635,326.545 420.895,329.018L419.267,330.968L417.353,332.386L414.219,333.62L410.904,334.018L407.764,333.62L404.997,332.642C401.242,330.9 397.28,327.043 394.133,321.823C389.464,314.081 386.439,303.388 387.076,295.484C387.467,290.628 389.174,286.613 391.855,283.837C394.281,281.325 397.959,280.744 400.962,282.128ZM402.992,297.285C402.976,297.725 402.982,298.18 403.004,298.646C403.235,303.468 405.208,309.206 407.834,313.561C408.354,314.423 409.128,315.37 409.85,316.177C411.158,313.491 412.568,309.926 413.344,306.321C413.709,304.623 413.938,302.917 413.86,301.316C413.806,300.185 413.744,299.065 412.937,298.354C411.439,297.033 408.879,296.988 405.086,297.356C404.371,297.425 403.669,297.398 402.992,297.285Z"/>
        <path d="M450.979,314.014C451.427,314.639 451.792,315.339 452.053,316.105L452.719,319.68L451.92,322.982L449.71,325.749L446.901,327.194L443.984,327.465L440.794,326.472L438.875,324.969L437.673,323.32C437.34,322.725 435.908,319.405 434.821,317.22C425.51,298.502 424.056,299.794 419.882,279.281C419.002,274.954 421.8,270.727 426.127,269.847C430.454,268.966 434.681,271.765 435.561,276.091C439.309,294.512 440.785,293.285 449.146,310.095C449.691,311.19 450.434,312.81 450.979,314.014Z"/>
        <path d="M447.803,285.467C446.645,284.394 444.906,283.019 442.922,281.937C441.416,281.117 439.776,280.092 438.194,280.628C436.825,281.092 436.155,282.755 435.297,285.281C433.878,289.462 429.332,291.705 425.151,290.286C420.97,288.867 418.727,284.32 420.146,280.139C422.301,273.789 425.433,269.984 428.668,267.709C434.52,263.594 441.383,263.848 447.636,266.469C455.405,269.725 461.668,276.768 462.367,278.066C465.076,283.093 464.53,288.741 461.391,294.167C456.895,301.937 446.158,309.305 444.693,310.277C441.014,312.717 436.045,311.711 433.605,308.031C431.165,304.352 432.171,299.383 435.85,296.943C436.748,296.347 442.63,292.519 446.305,287.926C446.841,287.257 447.45,286.146 447.803,285.467Z"/>
        <path d="M624.858,697.836C624.152,699.054 623.428,700.328 622.728,701.602C613.869,717.715 601.639,742.185 600.461,744.542C569.027,807.426 570.55,831.911 571.175,839.864C571.522,844.266 568.229,848.121 563.827,848.467C559.426,848.813 555.571,845.521 555.225,841.119C554.545,832.486 552.029,805.647 586.149,737.389C587.517,734.652 603.548,702.594 612.369,687.387C615.052,682.762 617.311,679.501 618.482,678.317L621.334,676.298L624.873,675.561L626.741,675.806L628.663,676.557L630.295,677.728L631.448,679.049L632.532,681.211L632.976,684.141C632.965,685.313 632.507,688.031 630.989,692.527C630.028,695.373 627.618,697.324 624.858,697.836Z"/>
        <path d="M543.56,776.511C542.88,780.874 538.785,783.863 534.423,783.182C530.06,782.501 527.071,778.407 527.752,774.044C530.82,754.381 557.432,703.72 584.335,664.2C586.48,661.049 590.55,659.849 594.061,661.332C597.572,662.815 599.549,666.569 598.786,670.304C590.858,709.091 590.591,708.545 578.363,745.959C576.991,750.156 572.47,752.45 568.274,751.078C564.077,749.707 561.783,745.186 563.155,740.989C567.062,729.032 569.72,721.045 571.8,714.383C556.981,740.152 545.443,764.447 543.56,776.511Z"/>
        <path d="M630.72,768.356C630.142,768.59 629.316,768.959 628.687,769.377C615.549,778.109 606.603,791.467 602.372,800.371C602.008,801.138 601.665,801.961 601.36,802.747C602.789,805.709 602.287,809.376 599.844,811.848L597.407,813.825L594.21,815.072L591.321,815.115L588.054,813.871L586.347,812.415L585.243,810.87L584.322,808.454L584.078,805.979C584.113,803.774 585.216,799.198 587.92,793.505C593.04,782.73 603.932,766.619 619.831,756.052C626.055,751.915 631.452,751.476 635.571,752.672C640.267,754.036 644.079,757.658 646.073,763.453C649.705,774.014 646.406,794.697 631.964,811.449C629.082,814.793 624.026,815.167 620.682,812.285C617.337,809.402 616.963,804.346 619.846,801.002C628.333,791.157 632.067,779.626 631.5,771.709C631.419,770.573 630.994,769.167 630.72,768.356Z"/>
        <path d="M383.963,734.276C387.527,739.166 392.292,744.943 397.546,751.11C418.925,776.203 448.918,806.367 452.21,810.223C454.373,812.756 454.74,816.365 453.13,819.282C451.521,822.199 448.273,823.813 444.976,823.334C440.039,822.618 407.556,817.856 383.52,818.084C383.698,818.375 383.88,818.66 384.068,818.933C387.651,824.148 393.681,829.954 401.439,833.067C405.537,834.711 407.529,839.373 405.884,843.471C404.24,847.569 399.578,849.561 395.481,847.916C382.639,842.763 373.106,832.445 368.57,824.275C366.051,819.739 365.027,815.615 365.064,812.841L365.373,810.237L366.025,808.287L366.978,806.601L368.361,805.017L371.376,803.119L374.506,802.413C389.19,801.396 409.419,802.995 424.929,804.677C405.651,784.421 374.089,750.618 365.19,734.49C362.879,730.301 361.887,726.775 361.835,724.366L362.366,720.646L363.742,717.918L365.383,716.135L367.315,714.848L369.643,713.983L372.753,713.628C376.231,713.643 382.588,715.458 392.207,720.528C416.09,733.116 432.035,749.968 445.486,766.108C457.8,780.883 467.746,795.074 480.685,803.749C484.353,806.207 485.334,811.181 482.875,814.848C480.417,818.516 475.443,819.497 471.776,817.038C460.36,809.385 450.865,798.022 440.609,785.402C426.638,768.212 411.021,748.531 384.747,734.682C384.485,734.544 384.224,734.409 383.963,734.276Z"/>
        <path d="M169.918,520.094C170.997,519.133 172.35,518.453 173.878,518.192C191.415,515.189 378.078,446.965 398.888,436.727C401.097,435.641 403.684,435.632 405.901,436.703C408.118,437.775 409.718,439.807 410.238,442.214C415.379,465.966 428.784,518.299 430.474,524.896C431.632,529.417 431.463,532.761 430.572,535.432L429.624,537.61L428.334,539.551C427.189,540.99 425.665,542.318 423.629,543.525C419.828,545.778 413.212,547.775 403.21,551.871C364.09,567.891 262.15,603.934 215.547,615.216C206.808,617.331 199.876,618.583 195.448,618.815C192.353,618.978 190.023,618.628 188.509,618.116C160.21,608.549 160.091,610.457 132.07,601.261C127.897,599.892 125.608,595.415 126.942,591.23C128.411,586.622 139.215,553.192 152.105,536.258C155.482,531.821 155.224,527.96 155.909,526.082L157.043,523.77L158.519,521.971L160.298,520.619L162.364,519.707L166.146,519.281L169.918,520.094ZM172.95,533.746C172.097,534.493 171.096,535.05 170.018,535.383C169.148,538.284 167.559,542.371 164.836,545.948C156.077,557.457 148.514,577.4 144.689,588.509C165.347,594.977 168.069,594.333 193.243,602.827C194.168,602.728 203.238,601.733 211.782,599.665C257.817,588.52 358.503,552.889 397.146,537.064C402.89,534.712 407.478,533.111 411.016,531.742C412.498,531.168 414.206,530.332 415.171,529.844C415.117,529.52 415.05,529.163 414.974,528.865C413.472,523.002 402.783,481.257 396.735,455.091C352.776,473.147 192.888,531.169 176.578,533.962C175.326,534.177 174.091,534.087 172.95,533.746Z"/>
        <path d="M359.563,745.909C355.754,735.799 348.126,715.483 331.559,668.357C316.714,626.131 309.933,609.333 307.298,601.329C304.618,593.188 305.192,590.972 306.367,587.233C307.691,583.021 312.185,580.676 316.398,581.999C320.61,583.323 322.955,587.818 321.631,592.03C321.267,593.19 321.664,593.8 322.496,596.325C325.119,604.294 331.875,621.014 346.653,663.05C376.499,747.946 377.76,747.48 379.505,755.102C380.443,759.2 378.049,763.325 374.025,764.544C370.001,765.762 365.721,763.658 364.228,759.728L360.086,748.824C359.721,747.864 359.554,746.878 359.563,745.909Z"/>
        <path d="M212.569,587.122C211.524,583.341 206.5,564.46 204.855,545.147C204.481,540.747 207.748,536.871 212.148,536.497C216.547,536.122 220.423,539.389 220.798,543.789C222.512,563.915 227.836,582.293 228.179,583.533L228.484,585.484L228.338,587.281L227.688,589.225L225.556,591.927L222.748,593.412L219.59,593.688L217.397,593.117L215.556,592.037L213.859,590.217L213.079,588.758L212.753,587.816C212.681,587.585 212.619,587.354 212.569,587.122Z"/>
        <path d="M257.754,581.653C257.612,581.385 257.422,581.034 257.254,580.741C253.167,573.654 239.832,554.358 228.306,544.763C226.603,543.346 224.968,542.16 223.417,541.361C223.215,541.257 222.971,541.151 222.73,541.055C221.311,544.689 221.366,551.093 222.429,561.163C222.892,565.554 219.704,569.495 215.313,569.958C210.922,570.422 206.981,567.234 206.517,562.843C205.235,550.698 205.749,542.435 207.229,537.185C208.845,531.452 211.749,528.216 214.844,526.459L217.741,525.238L220.712,524.719C223.1,524.561 225.749,524.993 228.551,526.127C235.408,528.901 244.162,536.955 251.976,546.184C262.48,558.591 271.485,572.836 272.77,575.984L273.397,578.146L273.417,580.724L272.625,583.202L271.162,585.225C268.052,588.359 262.983,588.379 259.849,585.268C258.805,584.233 258.107,582.98 257.754,581.653ZM257.686,577.805C258.007,576.395 258.713,575.056 259.805,573.955C258.926,574.841 258.053,576.061 257.686,577.805Z"/>
        <path d="M232.288,578.726C228.604,581.159 223.637,580.144 221.204,576.46C218.77,572.776 219.785,567.809 223.47,565.376C238.661,555.341 237.139,554.261 252.88,544.376C256.619,542.028 261.561,543.158 263.909,546.897C266.257,550.636 265.128,555.578 261.389,557.926C245.808,567.71 247.325,568.793 232.288,578.726Z"/>
        <path d="M291.625,556.032C291.962,555.98 292.818,555.837 293.391,555.645C294.507,555.27 295.718,554.726 297.055,554.053C308.71,548.188 311.951,542.387 312.674,540.924C314.63,536.965 319.432,535.34 323.39,537.295C327.348,539.251 328.974,544.053 327.019,548.011C325.937,550.201 321.685,559.57 304.248,568.345C297.091,571.947 291.582,572.72 287.152,571.453C282.48,570.116 278.129,566.468 274.496,558.562C271.316,551.642 268.148,540.489 263.68,523.949C262.528,519.687 265.054,515.291 269.316,514.14C273.579,512.988 277.974,515.514 279.126,519.776C283.266,535.101 286.088,545.47 289.034,551.881C289.86,553.678 291.283,555.585 291.625,556.032Z"/>
        <path d="M341.258,538.38C345.759,535.821 353.544,530.775 368.133,521.074C371.809,518.63 376.779,519.63 379.224,523.307C381.669,526.983 380.669,531.953 376.992,534.398C357.712,547.218 349.674,552.249 345.641,554.147C340.505,556.566 338.71,556.09 336.19,555.685L333.127,554.57L330.937,552.795C330.001,551.799 328.718,549.915 327.402,547.293C323.018,538.563 316.051,518.465 313.416,513.257C311.101,510.136 311.347,505.703 314.168,502.861C317.278,499.727 322.347,499.707 325.481,502.818C326.146,503.478 327.711,505.811 329.264,509.515C331.947,515.916 338.33,531.313 341.258,538.38Z"/>
        <path d="M728.07,503.067C730.57,499.486 735.499,498.568 739.123,501.028C740.969,502.281 742.27,503.376 742.984,504.174L744.355,506.133L745.212,508.577L745.309,511.079L744.555,513.743L742.849,516.147L740.381,517.866C739.113,518.467 735.83,519.186 729.713,519.092C713.47,518.841 667.639,515.658 561.517,515.635C559.297,515.634 557.177,514.711 555.664,513.086C554.151,511.462 553.381,509.281 553.539,507.066C557.128,456.697 556.753,457.48 557.763,407.15C557.851,402.736 561.507,399.224 565.921,399.312C570.336,399.401 573.848,403.057 573.759,407.471C572.802,455.185 573.077,457.333 570.105,499.644C667.016,499.825 711.093,502.671 728.07,503.067Z"/>
        <path d="M737.228,506.268C742.933,502.15 760.349,489.522 791.383,466.55C768.634,441.607 768.179,437.541 745.073,408.493C613.636,403.922 594.403,414.277 554.088,405.946C549.764,405.053 546.978,400.817 547.872,396.493C548.765,392.169 553.001,389.384 557.325,390.277C597.457,398.57 616.412,387.807 749.321,392.634C751.645,392.718 753.818,393.81 755.273,395.625C782.299,429.343 779.818,430.721 809.157,462.223C810.709,463.89 811.478,466.138 811.27,468.406C811.062,470.674 809.897,472.745 808.068,474.102C761.904,508.33 746.691,520.502 740.812,522.742L738.063,523.497L735.783,523.632L733.64,523.303L731.537,522.475L728.516,520.007L726.612,516.943C724.719,512.954 726.421,508.179 730.41,506.286C732.651,505.222 735.141,505.294 737.228,506.268Z"/>
        <path d="M663.606,439.632C663.338,440.781 663.043,442.178 662.792,443.692C661.404,452.041 660.003,466.198 658.688,489.367C658.504,492.62 656.365,495.436 653.281,496.486C650.198,497.537 646.785,496.613 644.652,494.15C637.023,485.336 633.161,479.985 630.794,474.759C627.512,486.285 625.175,494.148 624.464,496.539C623.501,499.778 620.608,502.063 617.235,502.248C613.861,502.433 610.735,500.48 609.423,497.366C593.929,460.588 597.844,459.96 592.171,432.334C591.283,428.009 594.074,423.777 598.399,422.889C602.724,422.001 606.956,424.791 607.844,429.116C611.798,448.373 610.8,453.889 615.75,469.166C618.008,461.216 620.69,451.612 623.58,440.921C624.539,437.377 627.787,434.94 631.458,435.011C635.129,435.082 638.28,437.642 639.101,441.221C641.868,453.288 642.304,459.414 644.305,465.072C645.452,451.142 646.642,442.323 647.777,436.951C648.775,432.226 649.953,429.483 650.888,428.007L652.761,425.751L654.933,424.265L657.452,423.457L660.205,423.444L662.136,423.966L664.256,425.144L666.882,427.959C669.324,431.638 668.321,436.607 664.643,439.049C664.307,439.272 663.961,439.466 663.606,439.632Z"/>
        <path d="M676.962,479.879C677.483,481.333 677.59,482.952 677.179,484.559C674.887,493.5 673.538,497.055 673.209,497.593L671.438,499.64L668.741,501.108L667.1,501.443L665.166,501.397L663.233,500.861L661.622,499.957L660.243,498.688L659.161,497.067L658.372,494.551L658.351,492.146C658.653,489.167 661.559,475.277 661.628,474.974C668.664,443.979 667.107,443.539 684.459,420.588C686.362,418.071 689.567,416.908 692.642,417.618C695.717,418.329 698.086,420.781 698.692,423.878C701.258,437.007 711.529,478.928 709.109,497.806C708.547,502.185 704.536,505.285 700.157,504.724C695.777,504.162 692.677,500.151 693.239,495.772C694.78,483.743 690.541,461.712 686.941,445.067C682.085,453.582 681.491,459.751 677.231,478.516C677.22,478.563 677.119,479.073 676.962,479.879Z"/>
        <path d="M667.951,473.181C664.841,470.046 664.861,464.977 667.995,461.867C671.13,458.757 676.199,458.777 679.309,461.912C681.622,464.243 684.886,464.29 687.874,463.745C691.699,463.047 695.328,461.222 697.317,459.294C700.487,456.22 705.556,456.299 708.629,459.469C711.703,462.639 711.624,467.708 708.454,470.781C704.695,474.425 697.975,478.166 690.747,479.485C682.679,480.957 674.196,479.475 667.951,473.181Z"/>
        <path d="M698.689,442.568C697.226,438.402 699.421,433.832 703.587,432.369C707.753,430.907 712.322,433.101 713.785,437.267C715.491,442.126 716.857,445.966 718.293,448.935C719.153,450.712 719.878,452.089 721.019,452.931C721.932,453.604 723.101,453.749 724.594,453.831C727.53,453.991 731.206,453.596 735.979,452.901C740.348,452.264 744.412,455.294 745.049,459.663C745.685,464.033 742.655,468.097 738.286,468.733C724.284,470.774 716.789,469.692 711.523,465.808C706.561,462.149 703.125,455.204 698.689,442.568Z"/>
        <path d="M733.577,428.764C734.66,424.483 739.014,421.887 743.295,422.97C747.575,424.052 750.171,428.406 749.089,432.687C742.173,460.032 739.634,502.834 739.264,508.977C738.999,513.384 735.205,516.747 730.798,516.482C726.39,516.216 723.028,512.423 723.293,508.015C723.677,501.634 726.392,457.174 733.577,428.764Z"/>
        <path d="M638.851,663.307C653.689,583.597 647.164,580.363 651.386,526.258C651.729,521.856 655.582,518.561 659.984,518.905C664.386,519.248 667.681,523.101 667.337,527.503C662.85,585.008 670.292,585.73 652.162,678.932C651.348,683.118 647.394,685.929 643.173,685.323C638.952,684.718 635.948,680.908 636.344,676.662L637.199,667.477C637.346,665.899 637.943,664.471 638.851,663.307Z"/>
    </g>
    <g transform="matrix(-0.905291,0.424791,-0.424791,-0.905291,1110.02,830.112)">
        <g transform="matrix(0.976394,-0.215998,0.215998,0.976394,-37.7095,75.2953)">
            <text x="325.623px" y="210.17px" style="font-family:'AnimeAce2.0BB', 'Anime Ace 2.0 BB';font-size:40px;fill:white;">M</text>
        </g>
        <g transform="matrix(0.991103,-0.133095,0.133095,0.991103,-23.6643,50.0952)">
            <text x="362.88px" y="202.056px" style="font-family:'AnimeAce2.0BB', 'Anime Ace 2.0 BB';font-size:40px;fill:white;">a</text>
        </g>
        <g transform="matrix(0.998247,-0.0591938,0.0591938,0.998247,-11.0256,23.6432)">
            <text x="393.557px" y="197.921px" style="font-family:'AnimeAce2.0BB', 'Anime Ace 2.0 BB';font-size:40px;fill:white;">r</text>
        </g>
        <g transform="matrix(0.999898,0.0142695,-0.0142695,0.999898,2.84112,-6.02844)">
            <text x="423.871px" y="196.081px" style="font-family:'AnimeAce2.0BB', 'Anime Ace 2.0 BB';font-size:40px;fill:white;">c</text>
        </g>
        <g transform="matrix(0.995874,0.0907442,-0.0907442,0.995874,19.7084,-40.5052)">
            <text x="455.3px" y="196.486px" style="font-family:'AnimeAce2.0BB', 'Anime Ace 2.0 BB';font-size:40px;fill:white;">h</text>
        </g>
        <g transform="matrix(0.979695,0.200494,-0.200494,0.979695,50.6172,-96.5747)">
            <text x="502.102px" y="201.612px" style="font-family:'AnimeAce2.0BB', 'Anime Ace 2.0 BB';font-size:40px;fill:white;">3</text>
        </g>
        <g transform="matrix(0.958638,0.284629,-0.284629,0.958638,81.052,-142.798)">
            <text x="531.849px" y="207.475px" style="font-family:'AnimeAce2.0BB', 'Anime Ace 2.0 BB';font-size:40px;fill:white;">0</text>
        </g>
        <g transform="matrix(0.937478,0.348045,-0.348045,0.937478,111.942,-184.691)">
            <text x="570.036px" y="219.23px" style="font-family:'AnimeAce2.0BB', 'Anime Ace 2.0 BB';font-size:40px;fill:white;">,</text>
        </g>
        <g transform="matrix(0.900187,0.435504,-0.435504,0.900187,160.396,-238.221)">
            <text x="599.9px" y="230.808px" style="font-family:'AnimeAce2.0BB', 'Anime Ace 2.0 BB';font-size:40px;fill:white;">2</text>
        </g>
        <g transform="matrix(0.86023,0.509907,-0.509907,0.86023,211.595,-285.338)">
            <text x="626.279px" y="243.3px" style="font-family:'AnimeAce2.0BB', 'Anime Ace 2.0 BB';font-size:40px;fill:white;">0</text>
        </g>
        <g transform="matrix(0.81497,0.579503,-0.579503,0.81497,275.122,-333.966)">
            <text x="660.542px" y="263.85px" style="font-family:'AnimeAce2.0BB', 'Anime Ace 2.0 BB';font-size:40px;fill:white;">2</text>
        </g>
        <g transform="matrix(0.774528,0.632539,-0.632539,0.774528,331.871,-369.513)">
            <text x="684.252px" y="280.76px" style="font-family:'AnimeAce2.0BB', 'Anime Ace 2.0 BB';font-size:40px;fill:white;">5</text>
        </g>
    </g>
</svg>
