<?xml version="1.0" encoding="UTF-8" standalone="no"?>
<!DOCTYPE svg PUBLIC "-//W3C//DTD SVG 1.1//EN" "http://www.w3.org/Graphics/SVG/1.1/DTD/svg11.dtd">
<svg width="100%" height="100%" viewBox="0 0 927 927" version="1.1" xmlns="http://www.w3.org/2000/svg" xmlns:xlink="http://www.w3.org/1999/xlink" xml:space="preserve" xmlns:serif="http://www.serif.com/" style="fill-rule:evenodd;clip-rule:evenodd;stroke-linecap:round;stroke-linejoin:round;stroke-miterlimit:1.5;">
    <g transform="matrix(1,0,0,1,-76.6402,-76.6402)">
        <g transform="matrix(1,0,0,1,-52.084,-112.91)">
            <circle cx="592.084" cy="652.91" r="463.36" style="fill:rgb(102,201,179);" custom="background-color"/>
        </g>
        <g transform="matrix(-0.734069,-0.679075,0.679075,-0.734069,440.436,1281.47)">
            <g transform="matrix(0.975542,-0.219814,0.219814,0.975542,-38.2494,76.7219)">
                <text x="325.638px" y="210.241px" style="font-family:'AnimeAce2.0BB', 'Anime Ace 2.0 BB';font-size:40px;fill:white;">S</text>
            </g>
            <g transform="matrix(0.989913,-0.141679,0.141679,0.989913,-25.0722,53.0452)">
                <text x="359.979px" y="202.595px" style="font-family:'AnimeAce2.0BB', 'Anime Ace 2.0 BB';font-size:40px;fill:white;">e</text>
            </g>
            <g transform="matrix(0.997707,-0.0676849,0.0676849,0.997707,-12.5275,26.8395)">
                <text x="389.818px" y="198.293px" style="font-family:'AnimeAce2.0BB', 'Anime Ace 2.0 BB';font-size:40px;fill:white;">a</text>
            </g>
            <g transform="matrix(0.99993,-0.0117925,0.0117925,0.99993,-2.2876,4.92362)">
                <text x="416.365px" y="196.443px" style="font-family:'AnimeAce2.0BB', 'Anime Ace 2.0 BB';font-size:40px;fill:white;">t</text>
            </g>
            <g transform="matrix(0.99887,0.0475316,-0.0475316,0.99887,9.8216,-20.7504)">
                <text x="441.224px" y="196.141px" style="font-family:'AnimeAce2.0BB', 'Anime Ace 2.0 BB';font-size:40px;fill:white;">t</text>
            </g>
            <g transform="matrix(0.993646,0.112548,-0.112548,0.993646,25.1596,-51.1963)">
                <text x="466.018px" y="197.237px" style="font-family:'AnimeAce2.0BB', 'Anime Ace 2.0 BB';font-size:40px;fill:white;">l</text>
            </g>
            <g transform="matrix(0.983756,0.179513,-0.179513,0.983756,43.9598,-85.3048)">
                <text x="493.32px" y="200.242px" style="font-family:'AnimeAce2.0BB', 'Anime Ace 2.0 BB';font-size:40px;fill:white;">e</text>
            </g>
            <g transform="matrix(0.972354,0.233511,-0.233511,0.972354,62.5231,-116.415)">
                <text x="522.911px" y="205.844px" style="font-family:'AnimeAce2.0BB', 'Anime Ace 2.0 BB';font-size:40px;fill:white;">,</text>
            </g>
            <g transform="matrix(0.941762,0.33628,-0.33628,0.941762,104.091,-173.873)">
                <text x="554.037px" y="213.586px" style="font-family:'AnimeAce2.0BB', 'Anime Ace 2.0 BB';font-size:40px;fill:white;">W</text>
            </g>
            <g transform="matrix(0.913205,0.407499,-0.407499,0.913205,142.818,-219.707)">
                <text x="587.171px" y="225.41px" style="font-family:'AnimeAce2.0BB', 'Anime Ace 2.0 BB';font-size:40px;fill:white;">a</text>
            </g>
            <g transform="matrix(0.877703,0.479205,-0.479205,0.877703,189.296,-265.852)">
                <text x="615.501px" y="237.939px" style="font-family:'AnimeAce2.0BB', 'Anime Ace 2.0 BB';font-size:40px;fill:white;">s</text>
            </g>
            <g transform="matrix(0.835403,0.549637,-0.549637,0.835403,246.465,-313.329)">
                <text x="646.382px" y="254.845px" style="font-family:'AnimeAce2.0BB', 'Anime Ace 2.0 BB';font-size:40px;fill:white;">h</text>
            </g>
            <g transform="matrix(0.80797,0.589224,-0.589224,0.80797,289.128,-343.622)">
                <text x="671.748px" y="271.768px" style="font-family:'AnimeAce2.0BB', 'Anime Ace 2.0 BB';font-size:40px;fill:white;">i</text>
            </g>
            <g transform="matrix(0.775471,0.631383,-0.631383,0.775471,328.72,-367.646)">
                <text x="681.278px" y="278.363px" style="font-family:'AnimeAce2.0BB', 'Anime Ace 2.0 BB';font-size:40px;fill:white;">n</text>
            </g>
            <g transform="matrix(0.72182,0.692081,-0.692081,0.72182,403.421,-405.867)">
                <text x="706.586px" y="298.9px" style="font-family:'AnimeAce2.0BB', 'Anime Ace 2.0 BB';font-size:40px;fill:white;">g</text>
            </g>
            <g transform="matrix(0.668479,0.743731,-0.743731,0.668479,483.611,-437.263)">
                <text x="732.281px" y="323.832px" style="font-family:'AnimeAce2.0BB', 'Anime Ace 2.0 BB';font-size:40px;fill:white;">t</text>
            </g>
            <g transform="matrix(0.608981,0.793185,-0.793185,0.608981,564.276,-460.408)">
                <text x="749.108px" y="342.114px" style="font-family:'AnimeAce2.0BB', 'Anime Ace 2.0 BB';font-size:40px;fill:white;">o</text>
            </g>
            <g transform="matrix(0.537652,0.843167,-0.843167,0.537652,672.385,-479.113)">
                <text x="773.063px" y="373.545px" style="font-family:'AnimeAce2.0BB', 'Anime Ace 2.0 BB';font-size:40px;fill:white;">n</text>
            </g>
            <g transform="matrix(0.245063,0.969507,-0.969507,0.245063,1103.64,-433.074)">
                <text x="829.902px" y="492.123px" style="font-family:'AnimeAce2.0BB', 'Anime Ace 2.0 BB';font-size:40px;fill:white;">A</text>
            </g>
            <g transform="matrix(0.169847,0.98547,-0.98547,0.169847,1209.79,-391.94)">
                <text x="837.531px" y="522.099px" style="font-family:'AnimeAce2.0BB', 'Anime Ace 2.0 BB';font-size:40px;fill:white;">n</text>
            </g>
            <g transform="matrix(0.0938919,0.995582,-0.995582,0.0938919,1315.7,-337.096)">
                <text x="843.04px" y="554.26px" style="font-family:'AnimeAce2.0BB', 'Anime Ace 2.0 BB';font-size:40px;fill:white;">y</text>
            </g>
            <g transform="matrix(0.013675,0.999906,-0.999906,0.013675,1417.82,-270.485)">
                <text x="846.014px" y="583.428px" style="font-family:'AnimeAce2.0BB', 'Anime Ace 2.0 BB';font-size:40px;fill:white;">w</text>
            </g>
            <g transform="matrix(-0.0722233,0.997388,-0.997388,-0.0722233,1528.36,-176.826)">
                <text x="846.422px" y="622.432px" style="font-family:'AnimeAce2.0BB', 'Anime Ace 2.0 BB';font-size:40px;fill:white;">h</text>
            </g>
            <g transform="matrix(-0.142459,0.989801,-0.989801,-0.142459,1610.72,-89.8147)">
                <text x="844.264px" y="652.837px" style="font-family:'AnimeAce2.0BB', 'Anime Ace 2.0 BB';font-size:40px;fill:white;">e</text>
            </g>
            <g transform="matrix(-0.215616,0.976478,-0.976478,-0.215616,1687.73,9.62695)">
                <text x="839.996px" y="682.67px" style="font-family:'AnimeAce2.0BB', 'Anime Ace 2.0 BB';font-size:40px;fill:white;">r</text>
            </g>
            <g transform="matrix(-0.286488,0.958084,-0.958084,-0.286488,1754.72,117.891)">
                <text x="833.461px" y="712.339px" style="font-family:'AnimeAce2.0BB', 'Anime Ace 2.0 BB';font-size:40px;fill:white;">e</text>
            </g>
            <g transform="matrix(-0.394893,0.918727,-0.918727,-0.394893,1838,302.919)">
                <text x="819.241px" y="756.745px" style="font-family:'AnimeAce2.0BB', 'Anime Ace 2.0 BB';font-size:40px;fill:white;">A</text>
            </g>
            <g transform="matrix(-0.466186,0.884687,-0.884687,-0.466186,1878.03,437.323)">
                <text x="807.077px" y="785.257px" style="font-family:'AnimeAce2.0BB', 'Anime Ace 2.0 BB';font-size:40px;fill:white;">d</text>
            </g>
            <g transform="matrix(-0.526663,0.850074,-0.850074,-0.526663,1900.79,571.125)">
                <text x="791.391px" y="814.762px" style="font-family:'AnimeAce2.0BB', 'Anime Ace 2.0 BB';font-size:40px;fill:white;">v</text>
            </g>
            <g transform="matrix(-0.582398,0.812904,-0.812904,-0.582398,1911.2,690.548)">
                <text x="778.226px" y="836.181px" style="font-family:'AnimeAce2.0BB', 'Anime Ace 2.0 BB';font-size:40px;fill:white;">e</text>
            </g>
            <g transform="matrix(-0.642023,0.766685,-0.766685,-0.642023,1909.03,829.984)">
                <text x="760.751px" y="860.67px" style="font-family:'AnimeAce2.0BB', 'Anime Ace 2.0 BB';font-size:40px;fill:white;">n</text>
            </g>
            <g transform="matrix(-0.693423,0.720531,-0.720531,-0.693423,1890.78,966.613)">
                <text x="739.748px" y="885.558px" style="font-family:'AnimeAce2.0BB', 'Anime Ace 2.0 BB';font-size:40px;fill:white;">t</text>
            </g>
            <g transform="matrix(-0.73986,0.672761,-0.672761,-0.73986,1865.1,1085.84)">
                <text x="722.615px" y="903.514px" style="font-family:'AnimeAce2.0BB', 'Anime Ace 2.0 BB';font-size:40px;fill:white;">u</text>
            </g>
            <g transform="matrix(-0.788269,0.615331,-0.615331,-0.788269,1819.97,1222.55)">
                <text x="699.649px" y="924.397px" style="font-family:'AnimeAce2.0BB', 'Anime Ace 2.0 BB';font-size:40px;fill:white;">r</text>
            </g>
            <g transform="matrix(-0.830626,0.55683,-0.55683,-0.830626,1762.18,1350.14)">
                <text x="675.749px" y="943.076px" style="font-family:'AnimeAce2.0BB', 'Anime Ace 2.0 BB';font-size:40px;fill:white;">e</text>
            </g>
            <g transform="matrix(-0.872023,0.489465,-0.489465,-0.872023,1688.17,1478.48)">
                <text x="650.802px" y="959.937px" style="font-family:'AnimeAce2.0BB', 'Anime Ace 2.0 BB';font-size:40px;fill:white;">s</text>
            </g>
            <g transform="matrix(-0.928277,0.37189,-0.37189,-0.928277,1533.03,1673.28)">
                <text x="605.158px" y="984.473px" style="font-family:'AnimeAce2.0BB', 'Anime Ace 2.0 BB';font-size:40px;fill:white;">w</text>
            </g>
            <g transform="matrix(-0.949541,0.313642,-0.313642,-0.949541,1422.09,1768.39)">
                <text x="568.798px" y="998.588px" style="font-family:'AnimeAce2.0BB', 'Anime Ace 2.0 BB';font-size:40px;fill:white;">i</text>
            </g>
            <g transform="matrix(-0.962576,0.271012,-0.271012,-0.962576,1366.44,1816.05)">
                <text x="557.83px" y="1002.37px" style="font-family:'AnimeAce2.0BB', 'Anime Ace 2.0 BB';font-size:40px;fill:white;">t</text>
            </g>
            <g transform="matrix(-0.979221,0.202796,-0.202796,-0.979221,1261.49,1889.24)">
                <text x="533.957px" y="1009.25px" style="font-family:'AnimeAce2.0BB', 'Anime Ace 2.0 BB';font-size:40px;fill:white;">h</text>
            </g>
            <g transform="matrix(-0.995068,0.0992001,-0.0992001,-0.995068,1073.98,1982.31)">
                <text x="487.708px" y="1017.86px" style="font-family:'AnimeAce2.0BB', 'Anime Ace 2.0 BB';font-size:40px;fill:white;">t</text>
            </g>
            <g transform="matrix(-0.999546,0.0301165,-0.0301165,-0.999546,956.474,2026.53)">
                <text x="462.975px" y="1020.47px" style="font-family:'AnimeAce2.0BB', 'Anime Ace 2.0 BB';font-size:40px;fill:white;">h</text>
            </g>
            <g transform="matrix(-0.999223,-0.0394204,0.0394204,-0.999223,824.507,2059.11)">
                <text x="432.554px" y="1021.43px" style="font-family:'AnimeAce2.0BB', 'Anime Ace 2.0 BB';font-size:40px;fill:white;">e</text>
            </g>
            <g transform="matrix(-0.988589,-0.150636,0.150636,-0.988589,614.093,2083.84)">
                <text x="385.972px" y="1018.66px" style="font-family:'AnimeAce2.0BB', 'Anime Ace 2.0 BB';font-size:40px;fill:white;">L</text>
            </g>
            <g transform="matrix(-0.98078,-0.195117,0.195117,-0.98078,512.955,2079.29)">
                <text x="358.888px" y="1014.38px" style="font-family:'AnimeAce2.0BB', 'Anime Ace 2.0 BB';font-size:40px;fill:white;">i</text>
            </g>
            <g transform="matrix(-0.969268,-0.246008,0.246008,-0.969268,435.078,2079.07)">
                <text x="347.402px" y="1012.36px" style="font-family:'AnimeAce2.0BB', 'Anime Ace 2.0 BB';font-size:40px;fill:white;">b</text>
            </g>
            <g transform="matrix(-0.946902,-0.321521,0.321521,-0.946902,292.537,2057.07)">
                <text x="316.126px" y="1004.38px" style="font-family:'AnimeAce2.0BB', 'Anime Ace 2.0 BB';font-size:40px;fill:white;">r</text>
            </g>
            <g transform="matrix(-0.920306,-0.391198,0.391198,-0.920306,162.75,2022.48)">
                <text x="287.381px" y="994.663px" style="font-family:'AnimeAce2.0BB', 'Anime Ace 2.0 BB';font-size:40px;fill:white;">a</text>
            </g>
            <g transform="matrix(-0.888459,-0.458956,0.458956,-0.888459,37.8944,1974.32)">
                <text x="258.859px" y="982.555px" style="font-family:'AnimeAce2.0BB', 'Anime Ace 2.0 BB';font-size:40px;fill:white;">r</text>
            </g>
            <g transform="matrix(-0.852544,-0.522656,0.522656,-0.852544,-76.7261,1915.62)">
                <text x="231.863px" y="968.634px" style="font-family:'AnimeAce2.0BB', 'Anime Ace 2.0 BB';font-size:40px;fill:white;">y</text>
            </g>
            <g transform="matrix(-0.78284,-0.622224,0.622224,-0.78284,-243.194,1803.33)">
                <text x="193.09px" y="944.102px" style="font-family:'AnimeAce2.0BB', 'Anime Ace 2.0 BB';font-size:40px;fill:white;">o</text>
            </g>
            <g transform="matrix(-0.729886,-0.683569,0.683569,-0.729886,-347.663,1701.3)">
                <text x="162.306px" y="919.342px" style="font-family:'AnimeAce2.0BB', 'Anime Ace 2.0 BB';font-size:40px;fill:white;">f</text>
            </g>
            <g transform="matrix(-0.649283,-0.760547,0.760547,-0.649283,-460.501,1564.53)">
                <text x="130.482px" y="888.441px" style="font-family:'AnimeAce2.0BB', 'Anime Ace 2.0 BB';font-size:40px;fill:white;">C</text>
            </g>
            <g transform="matrix(-0.582398,-0.812904,0.812904,-0.582398,-528.922,1457.65)">
                <text x="109.947px" y="864.681px" style="font-family:'AnimeAce2.0BB', 'Anime Ace 2.0 BB';font-size:40px;fill:white;">o</text>
            </g>
            <g transform="matrix(-0.509258,-0.860614,0.860614,-0.509258,-585.069,1331.26)">
                <text x="87.022px" y="832.438px" style="font-family:'AnimeAce2.0BB', 'Anime Ace 2.0 BB';font-size:40px;fill:white;">n</text>
            </g>
            <g transform="matrix(-0.437216,-0.899356,0.899356,-0.437216,-622.307,1219.36)">
                <text x="70.362px" y="804.389px" style="font-family:'AnimeAce2.0BB', 'Anime Ace 2.0 BB';font-size:40px;fill:white;">g</text>
            </g>
            <g transform="matrix(-0.361709,-0.932291,0.932291,-0.361709,-645.256,1102.68)">
                <text x="54.844px" y="772.225px" style="font-family:'AnimeAce2.0BB', 'Anime Ace 2.0 BB';font-size:40px;fill:white;">r</text>
            </g>
            <g transform="matrix(-0.292428,-0.956288,0.956288,-0.292428,-654.708,1003.31)">
                <text x="43.827px" y="743.867px" style="font-family:'AnimeAce2.0BB', 'Anime Ace 2.0 BB';font-size:40px;fill:white;">e</text>
            </g>
            <g transform="matrix(-0.215425,-0.97652,0.97652,-0.215425,-655.922,903.343)">
                <text x="34.93px" y="715.168px" style="font-family:'AnimeAce2.0BB', 'Anime Ace 2.0 BB';font-size:40px;fill:white;">s</text>
            </g>
            <g transform="matrix(-0.130946,-0.991389,0.991389,-0.130946,-643.982,796.982)">
                <text x="27.326px" y="680.749px" style="font-family:'AnimeAce2.0BB', 'Anime Ace 2.0 BB';font-size:40px;fill:white;">s</text>
            </g>
        </g>
        <g transform="matrix(1,0,0,1,-347.496,27.7933)">
            <g transform="matrix(95.2486,0,0,95.2486,1279.73,540)">
            </g>
            <text x="495.19px" y="540px" style="font-family:'Krungthep';font-size:95.249px;fill:white;" custom="date">March 30, 2025</text>
        </g>
        <path d="M170.252,457.295L900.347,457.295" style="fill:none;stroke:white;stroke-width:10px;"/>
        <g transform="matrix(1,0,0,1,0,150.839)">
            <path d="M170.252,457.295L900.347,457.295" style="fill:none;stroke:white;stroke-width:10px;"/>
        </g>
        <g transform="matrix(1.02216,0,0,1.02216,-22.8209,-164.915)">
            <circle cx="546.022" cy="689.635" r="390.365" style="fill:none;stroke:white;stroke-width:9.78px;"/>
        </g>
        <g id="drawings">
            <path d="M484.946,208.097C485.637,208.194 491.764,209.035 497.521,209.082C515.308,209.226 543.031,207.162 546.161,206.673C554.934,205.303 560.623,204.635 562.964,204.383C564.103,203.683 565.567,203.57 566.85,204.211L567.795,204.805L568.684,205.778L569.194,206.884L569.354,207.944L569.184,209.175L568.713,210.201L568.046,210.997L567.237,211.581L566.235,211.988C565.979,212.06 565.58,212.145 565.007,212.224C563.173,212.476 558.2,212.89 547.396,214.577C543.716,215.152 506.99,217.871 490.241,216.862C486.942,216.663 484.338,216.295 482.736,215.804C482.078,215.603 481.532,215.371 481.096,215.134L479.875,214.262C478.266,212.751 478.186,210.218 479.697,208.608C481.087,207.128 483.341,206.942 484.946,208.097Z" style="fill:white;"/>
            <path d="M492.2,235.258C492.426,235.71 495.136,241.148 495.25,241.572L495.391,242.708L495.137,244.044L494.568,245.073L493.879,245.776L492.648,246.443L490.967,246.626L489.831,246.335L488.841,245.741C488.673,245.605 487.866,244.724 486.34,242.474C485.833,241.726 485.614,240.867 485.657,240.029C484.98,238.589 484.389,237.196 484.299,236.528C482.367,222.155 483.224,222.154 481.15,218.069C480.151,216.101 480.938,213.691 482.906,212.692C484.875,211.692 487.284,212.479 488.284,214.448C490.642,219.092 490.026,219.051 492.2,235.258Z" style="fill:white;"/>
            <path d="M554.273,236.223C554.368,235.37 554.682,232.427 554.741,229.985C554.862,224.979 554.93,219.02 555.911,214.911C556.512,212.391 557.512,210.429 558.736,209.201C560.294,207.637 562.828,207.632 564.393,209.19C565.957,210.748 565.961,213.283 564.403,214.847C564.155,215.096 564.054,215.516 563.908,215.98C563.604,216.948 563.403,218.101 563.252,219.354C562.71,223.832 562.834,229.408 562.624,233.476C562.487,236.126 562.147,238.271 561.64,239.515L560.594,241.246L559.091,242.414C557.116,243.401 554.711,242.6 553.724,240.625C552.981,239.139 553.251,237.409 554.273,236.223Z" style="fill:white;"/>
            <path d="M484.152,246.347C481.946,246.43 480.087,244.707 480.004,242.501C479.92,240.295 481.644,238.436 483.85,238.352C509.018,237.4 523.791,238.815 533.932,239.23C542.825,239.595 547.7,239.271 553.523,234.913C555.29,233.59 557.799,233.95 559.122,235.718C560.445,237.485 560.084,239.994 558.317,241.317C552.288,245.83 547.099,247.217 539.366,247.328C529.224,247.472 514.113,245.213 484.152,246.347Z" style="fill:white;"/>
            <path d="M565.362,203.133C566.987,202.962 568.619,203.805 569.377,205.357C570.345,207.341 569.521,209.738 567.537,210.706L566.361,211.093L565.126,211.177C564.028,211.132 561.906,210.569 559.17,209.462C549.733,205.642 530.512,195.338 524.095,191.863C512.119,198.544 503.056,208.581 480.586,213.152C478.422,213.592 476.309,212.192 475.869,210.029C475.429,207.866 476.828,205.752 478.991,205.312C501.586,200.716 509.902,190.113 522.283,183.759C523.461,183.154 524.862,183.172 526.024,183.806C528.275,185.033 546.259,194.842 557.812,200.145C560.923,201.572 564.564,202.856 565.362,203.133Z" style="fill:white;"/>
            <path d="M515.714,168.717C515.305,167.904 515.17,166.948 515.398,165.995C516.27,162.341 516.762,160.654 516.876,160.424L517.92,159.1L519.051,158.439L520.267,158.181L521.706,158.368L523.07,159.126L523.765,159.891L524.21,160.723L524.446,161.613L524.44,163.029C524.163,165.639 521.92,179.931 523.263,191.845C523.511,194.039 521.93,196.02 519.737,196.268C517.543,196.515 515.561,194.935 515.314,192.741C514.374,184.403 515.057,174.966 515.714,168.717Z" style="fill:white;"/>
            <path d="M476.675,219.872C477.007,221.294 479.39,231.392 481.291,236.573C481.696,237.677 482.229,238.88 482.582,239.649C484.366,240.728 485.035,243.024 484.065,244.904L483.06,246.201L481.718,247.001L480.334,247.257L479.11,247.095L477.954,246.575L477.022,245.803C476.602,245.361 476.045,244.573 475.492,243.454C473.31,239.041 469.716,227.028 468.865,221.935C468.578,220.217 468.635,218.959 468.771,218.372L469.199,217.238L470.013,216.184C471.622,214.673 474.156,214.753 475.667,216.362C476.582,217.337 476.914,218.651 476.675,219.872ZM477.433,240.514C477.26,240.719 477.099,240.958 476.955,241.237C477.09,240.975 477.251,240.733 477.433,240.514ZM475.68,221.824C475.619,221.89 475.555,221.954 475.489,222.016C475.553,221.956 475.617,221.892 475.68,221.824Z" style="fill:white;"/>
            <path d="M570.909,239.405C571.519,240.863 571.227,242.609 570.037,243.79C568.47,245.345 565.935,245.335 564.38,243.768L563.541,242.598L563.089,241.31C562.909,240.509 562.826,239.19 562.919,237.512C563.307,230.536 566.437,215.082 566.791,213.345C567.232,211.182 569.346,209.784 571.509,210.224C573.673,210.665 575.071,212.779 574.63,214.942C574.274,216.693 571.16,237.713 570.909,239.405Z" style="fill:white;"/>
            <path d="M521.024,449.191C521.384,415.158 521.909,255.037 521.61,248.899C521.502,246.694 523.205,244.817 525.41,244.709C527.615,244.601 529.492,246.304 529.6,248.509C529.935,255.365 529.214,453.154 528.865,456.342L528.556,457.574L527.74,458.831L526.675,459.629L525.636,459.997L524.336,460.05L522.87,459.574L522.136,459.053L521.419,458.216L520.727,456.627C520.58,456.143 520.333,455.232 520.164,454.598C519.667,453.847 519.419,452.924 519.525,451.96L519.834,450.728L520.65,449.471L521.024,449.191ZM527.41,453.265C527.409,453.263 527.408,453.262 527.407,453.261C527.256,453.943 526.934,454.553 526.493,455.049C526.881,454.662 527.241,454.099 527.41,453.265Z" style="fill:white;"/>
            <path d="M517.619,322.939C513.743,309.556 507.129,289.687 499.994,274.634C497.204,268.747 494.351,263.613 491.541,259.981C490.022,258.018 488.595,256.516 487.155,255.802C485.176,254.823 484.365,252.421 485.345,250.443C486.325,248.464 488.726,247.653 490.705,248.633C492.997,249.768 495.45,251.96 497.868,255.085C500.965,259.087 504.148,264.72 507.223,271.207C516.464,290.704 524.867,318.071 527.821,329.979C528.684,333.459 529.063,335.825 529.047,336.62L528.834,337.943L528.222,339.142L527.467,339.921L526.713,340.391L525.575,340.743L524.467,340.76L523.029,340.301L522.048,339.57L520.899,337.856C520.221,336.459 518.904,332.954 516.875,326.764C516.428,325.399 516.756,323.964 517.619,322.939Z" style="fill:white;"/>
            <path d="M528.352,330.909C528.512,326.392 529.704,313.451 537.344,291.112C538.266,288.414 544.647,269.787 551.276,256.927C554.47,250.733 557.9,245.862 560.74,243.971C562.578,242.747 565.063,243.246 566.287,245.083C567.51,246.921 567.012,249.406 565.174,250.63C563.04,252.051 560.786,255.939 558.387,260.593C551.968,273.045 545.807,291.088 544.913,293.7C535.734,320.54 536.392,331.26 536.338,332.996L536.13,334.308L535.568,335.439L534.856,336.208L534.081,336.714L532.392,337.135L531.228,336.994L530.095,336.485L528.983,335.417L528.365,334.298C527.839,333.183 527.872,331.948 528.352,330.909Z" style="fill:white;"/>
            <path d="M484.178,451.869C483.882,452.552 483.392,453.161 482.727,453.604C481.782,454.233 481.205,454.505 481.046,454.563L480.132,454.781L479.263,454.79L477.987,454.445L476.959,453.766L476.239,452.896L475.813,451.938L475.687,450.251L475.953,449.27L476.392,448.473C477.156,447.384 505.59,422.699 516.733,357.287C517.104,355.111 519.172,353.645 521.348,354.015C523.524,354.386 524.99,356.454 524.619,358.63C514.48,418.151 489.965,445.999 484.178,451.869Z" style="fill:white;"/>
            <path d="M573.883,449.936C575.575,450.402 576.82,451.953 576.82,453.793L576.619,455.051L575.857,456.412L574.485,457.454L572.911,457.83L571.461,457.627C571.102,457.514 570.405,457.218 569.474,456.612C562.514,452.081 527.26,421.269 527.26,348.768C527.26,346.56 529.053,344.768 531.26,344.768C533.468,344.768 535.26,346.56 535.26,348.768C535.26,416.533 567.333,445.672 573.839,449.908C573.853,449.917 573.868,449.926 573.883,449.936ZM569.311,451.872C569.006,452.412 568.82,453.045 568.82,453.793C568.82,453.097 568.998,452.443 569.311,451.872Z" style="fill:white;"/>
            <path d="M482.299,210.156C484.5,209.983 486.427,211.628 486.601,213.829C486.775,216.03 485.129,217.958 482.928,218.131C480.59,218.316 478.229,217.947 475.89,218.131C474.27,218.259 464.153,219.057 455.679,220.221C453.492,220.522 451.472,218.99 451.172,216.803C450.871,214.616 452.403,212.596 454.59,212.296C463.257,211.105 473.604,210.287 475.261,210.156C477.6,209.972 479.96,210.341 482.299,210.156Z" style="fill:white;"/>
            <path d="M588.319,207.807C588.322,207.803 588.326,207.8 588.329,207.797C589.89,206.236 592.425,206.236 593.986,207.797C595.547,209.358 595.547,211.892 593.986,213.453C592.614,214.826 591.854,215.526 588.538,215.853C585.79,216.124 579.929,216.088 565.238,216.741C563.033,216.839 561.163,215.128 561.065,212.923C560.967,210.717 562.678,208.847 564.883,208.749C577.001,208.211 583.05,208.15 586.305,207.99C587.148,207.949 587.972,207.851 588.319,207.807Z" style="fill:white;"/>
            <path d="M632.77,192.724C630.593,192.359 629.122,190.294 629.488,188.117C629.854,185.94 631.918,184.469 634.095,184.835C643.59,186.43 646.188,188.763 649.428,194.335C650.488,196.157 651.616,198.435 653.212,201.322C655.49,196.914 657.406,194.124 659.895,192.221C663.545,189.429 668.544,188.345 678.292,187.621C680.494,187.458 682.414,189.112 682.577,191.314C682.741,193.516 681.086,195.436 678.885,195.599C671.461,196.15 667.534,196.45 664.754,198.576C661.901,200.757 660.37,204.633 657.192,211.467C656.574,212.794 655.281,213.678 653.821,213.772C652.36,213.865 650.964,213.153 650.183,211.916C646.25,205.687 644.282,201.4 642.512,198.356C640.491,194.88 638.693,193.719 632.77,192.724Z" style="fill:white;"/>
            <path d="M633.706,259.626C634.671,257.62 635.892,255.997 637.204,254.676C641.815,250.033 647.816,249.151 649.112,248.971C651.299,248.668 653.321,250.198 653.623,252.385C653.926,254.571 652.397,256.593 650.21,256.896C649.416,257.006 645.705,257.469 642.88,260.313C640.978,262.229 639.592,265.238 639.592,269.828L639.487,270.932L638.85,272.358L638.197,273.076L637.44,273.59L636.582,273.92L635.604,274.046L634.04,273.737L632.778,272.897L632.135,272.073L631.667,270.881C631.582,270.511 631.11,267.932 628.53,265.726C625.399,263.049 619.647,261.165 609.298,262.532C607.109,262.822 605.097,261.28 604.808,259.091C604.519,256.902 606.061,254.891 608.249,254.601C622.013,252.783 629.53,256.067 633.706,259.626Z" style="fill:white;"/>
            <path d="M787.55,693.374C788.039,693.146 788.583,693.013 789.157,693C793.083,692.918 795.128,693.094 795.386,693.171L796.688,693.833L797.817,695.179L798.187,696.234L798.24,697.457L797.986,698.485L797.375,699.535L796.058,700.599L794.807,701.002C792.26,701.44 754.037,703.114 689.117,703.114C611.434,703.114 612.293,708.287 534.294,712.256C532.089,712.368 530.208,710.669 530.096,708.464C529.984,706.259 531.683,704.378 533.887,704.266C612.091,700.287 611.231,695.114 689.117,695.114C738.813,695.114 774.175,693.914 787.55,693.374Z" style="fill:white;"/>
            <path d="M534.013,716.809C533.799,717.017 533.583,717.228 533.367,717.444C531.806,719.005 529.271,719.005 527.71,717.444C526.149,715.883 526.149,713.348 527.71,711.787C530.86,708.638 533.112,706.673 534.625,705.691C535.23,705.298 535.768,705.021 536.232,704.832L537.63,704.439L538.598,704.382L539.721,704.556L541.226,705.286L542.321,706.413L543.074,708.063C543.485,709.606 543.075,713.155 541.914,718.151C539.773,727.365 535.686,742.977 536.636,760.217C536.7,761.365 536.266,762.485 535.446,763.291C534.626,764.097 533.498,764.511 532.352,764.427C526.516,764.002 521.805,761.74 518.234,760.045C517.663,759.774 516.994,759.494 516.43,759.267C516.329,759.865 516.23,760.599 516.197,761.305C515.955,766.555 516.53,783.637 516.797,790.968C517.45,791.022 518.1,791.237 518.683,791.626C520.52,792.852 521.016,795.337 519.791,797.174C519.624,797.424 517.517,800.1 515.79,800.735L514.616,801.016L513.64,801.027L511.891,800.512L510.678,799.603L509.641,798.061C509.307,797.322 508.986,796.172 508.92,794.428C508.818,791.75 507.905,767.441 508.206,760.936C508.483,754.936 510.474,752.445 512.298,751.489L514.131,750.88L515.42,750.796C515.785,750.807 516.167,750.845 516.564,750.914C518.154,751.191 520.202,752.128 522.655,753.289C524.33,754.082 526.274,754.987 528.499,755.634C528.418,739.777 531.95,725.645 534.013,716.809Z" style="fill:white;"/>
            <path d="M794.363,784.342C794.752,783.743 795.305,783.241 795.996,782.912C797.989,781.963 800.378,782.81 801.328,784.803L801.776,786.525L801.73,787.505L801.486,788.425L800.477,790.024L798.921,791.188C797.724,791.829 795.439,792.473 792.201,792.941C774.874,795.444 724.506,795.357 685.996,798.937C629.949,804.148 488.008,803.957 474.321,804.583C472.116,804.684 470.244,802.976 470.143,800.77C470.042,798.565 471.75,796.693 473.956,796.592C487.618,795.966 629.308,796.173 685.256,790.971C723.618,787.404 773.796,787.517 791.057,785.023C792.275,784.847 793.565,784.545 794.363,784.342Z" style="fill:white;"/>
            <path d="M780.559,830.906C781.31,828.885 783.542,827.815 785.596,828.514C787.686,829.225 788.805,831.499 788.094,833.589C787.493,835.357 785.982,837.231 783.296,838.838C779.199,841.289 771.651,843.557 761.663,845.481C707.897,855.838 579.972,858.574 565.867,858.872C542.761,859.362 524.175,859.463 509.901,857.045C494.448,854.427 483.8,848.812 477.465,838.295C472.203,829.559 469.924,817.197 470.86,799.696C470.978,797.492 472.864,795.798 475.068,795.916C477.273,796.034 478.967,797.919 478.849,800.124C478.024,815.533 479.685,826.475 484.318,834.167C489.528,842.816 498.529,847.004 511.238,849.157C525.126,851.51 543.214,851.35 565.697,850.874C579.706,850.577 706.754,847.911 760.149,837.625C767.774,836.156 773.832,834.564 777.701,832.753C778.538,832.361 779.254,831.968 779.83,831.555C780.112,831.354 780.481,830.984 780.559,830.906Z" style="fill:white;"/>
            <path d="M836.431,776.232C835.38,766.919 834.054,754.066 833.296,742.452C826.886,740.883 825.054,741.677 808.171,741.042C806.118,740.965 804.458,739.345 804.329,737.295C803.479,723.735 802.431,715.333 800.92,710.236C800.187,707.764 799.635,706.3 798.548,705.72C797.541,705.183 796.346,705.568 794.92,705.841C792.752,706.255 790.655,704.83 790.241,702.662C789.827,700.494 791.251,698.397 793.42,697.983C796.923,697.313 799.839,697.342 802.313,698.661C804.705,699.938 806.977,702.525 808.59,707.961C810.062,712.925 811.196,720.821 812.072,733.172C828.83,733.698 829.281,732.956 838.201,735.481C839.84,735.945 841.006,737.398 841.104,739.099C842.367,760.942 845.811,786.177 845.987,788.845L845.982,789.709L845.745,790.734L845.296,791.599L844.506,792.453L843.512,793.041L842.204,793.335L841.176,793.256L840.022,792.822L838.731,791.66L838.139,790.447C837.987,789.949 837.347,786.408 836.048,778.72C835.899,777.837 836.052,776.973 836.431,776.232Z" style="fill:white;"/>
            <path d="M837.042,776.874L837.042,776.851L840.115,776.851L840.108,777.88L840.108,778.141C840.765,778.854 841.167,779.806 841.167,780.851C841.167,781.893 840.768,782.842 840.115,783.554L840.116,784.851L839.992,784.851C815.097,784.851 815.756,789.35 791.191,788.406C788.985,788.321 787.263,786.461 787.348,784.255C787.433,782.049 789.293,780.327 791.499,780.412C814.898,781.311 815.264,777.215 837.042,776.874Z" style="fill:white;"/>
            <path d="M428.223,851.829C426.398,850.586 425.927,848.096 427.17,846.271C428.413,844.447 430.904,843.975 432.728,845.218C441.006,850.86 451.483,851.528 461.316,850.357C476.904,848.5 491.024,841.883 493.753,840.608C495.321,839.875 497.182,840.234 498.365,841.497C509.084,852.94 515.283,859.347 523.457,860.509C531.818,861.697 541.849,857.539 559.883,849.132C561.277,848.482 562.919,848.689 564.109,849.663C577.704,860.806 587.568,862.277 602.35,857.882C613.051,854.701 626.116,848.694 644.334,841.144C645.822,840.527 647.534,840.863 648.679,841.996C655.12,848.371 661.037,851.656 666.646,852.8C675.029,854.51 682.561,851.44 689.684,847.748C698.944,842.948 707.626,837.146 716.175,836.121C719.237,835.754 723.234,836.33 727.764,837.441C733.696,838.895 740.693,841.234 747.627,842.744C757.461,844.885 767.317,845.812 772.401,837.322C773.535,835.428 775.993,834.811 777.887,835.945C779.781,837.079 780.398,839.538 779.264,841.432C773.587,850.915 763.947,853.023 753.23,851.804C744.877,850.854 735.866,847.865 728.217,845.817C723.825,844.642 719.969,843.724 717.127,844.065C709.416,844.989 701.718,850.521 693.365,854.85C684.636,859.375 675.321,862.734 665.047,860.639C658.784,859.361 652.106,856.059 644.993,849.533C627.684,856.75 615.051,862.452 604.63,865.551C587.737,870.573 576.216,869.254 561.01,857.427C542.237,866.076 531.326,869.707 522.331,868.429C513.306,867.147 505.87,861.026 494.498,849.056C488.793,851.568 476.059,856.657 462.262,858.3C450.532,859.697 438.098,858.559 428.223,851.829Z" style="fill:white;"/>
            <path d="M309.568,838.989C309.711,839.076 310.192,839.354 310.653,839.446C310.93,839.501 311.233,839.537 311.563,839.555C311.995,839.579 312.465,839.573 312.978,839.534C319.677,839.033 331.756,833.884 353.153,818.186C354.077,817.509 355.246,817.259 356.366,817.502C357.485,817.744 358.447,818.455 359.008,819.454C363.6,827.637 368.31,832.442 373.21,834.857C378.641,837.534 384.187,837.131 389.629,835.667C395.848,833.994 401.946,830.954 407.7,828.632C408.858,828.164 410.167,828.265 411.241,828.902C418.351,833.127 422.722,835.284 426.759,835.958C432.959,836.993 438.261,834.632 450.748,831.948C452.906,831.484 455.035,832.859 455.499,835.018C455.963,837.176 454.587,839.305 452.429,839.769C438.416,842.781 432.4,845.01 425.442,843.848C421.044,843.114 416.23,841.056 408.884,836.796C403.378,839.1 397.587,841.81 391.707,843.393C384.4,845.358 376.966,845.628 369.673,842.033C364.479,839.473 359.285,834.885 354.335,827.204C339.603,837.704 329.176,843.136 321.919,845.633C315.862,847.717 311.673,847.851 308.883,847.249C306.239,846.678 304.518,845.447 303.402,844.113C302.418,842.936 301.875,841.627 301.653,840.377L301.551,838.496L301.915,836.676C302.634,834.589 304.912,833.478 307,834.196C308.99,834.882 310.093,836.985 309.568,838.989Z" style="fill:white;"/>
            <path d="M551.23,749.029C552.038,749.101 557.175,749.541 563.154,749.71C594.879,750.609 672.76,749.902 688.679,750.811C738.216,753.637 737.612,750.809 786.845,747.263C789.047,747.104 790.963,748.763 791.122,750.965C791.281,753.167 789.622,755.083 787.42,755.242C737.67,758.825 738.279,761.654 688.223,758.798C672.333,757.891 594.595,758.604 562.928,757.707C556.275,757.519 551.56,757.234 549.686,756.884L548.092,756.414L546.764,755.501C545.209,753.934 545.219,751.399 546.786,749.844C547.991,748.65 549.766,748.379 551.23,749.029Z" style="fill:white;"/>
            <path d="M546.354,780.807C546.367,780.813 546.381,780.82 546.395,780.827C548.371,781.809 549.179,784.212 548.196,786.189C546.97,788.657 546.042,790.006 545.489,790.568L544.685,791.238L543.749,791.717L542.89,791.938L541.823,791.959L540.701,791.677L539.75,791.138L539.018,790.434L538.433,789.502L538.084,788.47L537.932,787.395C537.764,785.006 538.8,778.13 538.509,771.885C538.407,769.68 540.114,767.806 542.319,767.703C544.524,767.601 546.398,769.308 546.501,771.513C546.634,774.373 546.517,777.874 546.354,780.807Z" style="fill:white;"/>
            <path d="M542.165,777.085C539.964,777.262 538.034,775.619 537.857,773.418C537.68,771.218 539.323,769.288 541.524,769.111C548.572,768.544 552.73,769.126 555.584,770.754C557.648,771.931 559.193,773.632 560.494,776.09C561.917,778.779 563.073,782.608 564.873,787.904C565.256,789.032 565.117,790.272 564.492,791.287C563.868,792.301 562.824,792.985 561.645,793.151C558.301,793.624 554.894,793.53 551.55,794.003C551.09,794.068 548.184,794.468 545.87,795.233C543.774,795.926 541.51,794.787 540.817,792.691C540.123,790.595 541.262,788.331 543.358,787.638C546.241,786.684 549.858,786.162 550.432,786.081C552.173,785.835 553.931,785.743 555.688,785.644C555.077,783.815 554.53,782.255 553.952,780.936C553.295,779.439 552.716,778.328 551.62,777.703C549.71,776.613 546.882,776.705 542.165,777.085Z" style="fill:white;"/>
            <path d="M580.56,771.271C580.748,770.906 580.995,770.563 581.302,770.258C582.87,768.703 585.404,768.713 586.959,770.28C587.284,770.607 587.742,770.974 587.909,771.105C588.18,771.048 589.187,770.828 589.968,770.572C592.374,769.783 595.86,768.459 601.514,766.956C602.722,766.635 604.009,766.896 604.996,767.662C605.983,768.429 606.554,769.612 606.542,770.861C606.446,780.651 605.375,785.85 602.394,789.269C599.473,792.618 594.39,794.485 585.052,796.724L583.151,796.955L582.1,796.837L580.95,796.475C579.444,795.824 577.026,794.082 576.167,787.957C575.773,785.143 575.607,781.024 575.912,775.015C576.024,772.81 577.905,771.111 580.11,771.223C580.263,771.231 580.413,771.247 580.56,771.271ZM583.797,777.974C583.676,781.924 583.801,784.783 584.09,786.847C584.184,787.521 584.334,788.151 584.467,788.635C587.731,787.842 590.344,787.151 592.432,786.36C594.172,785.7 595.47,785.037 596.365,784.011C597.215,783.035 597.642,781.756 597.95,780.058C598.156,778.923 598.292,777.643 598.382,776.188C594.653,777.357 592.321,778.286 590.62,778.723C588.532,779.26 586.983,779.231 585.521,778.769C584.954,778.589 584.386,778.333 583.797,777.974Z" style="fill:white;"/>
            <path d="M571.096,736.071C574.762,735.787 582.427,735.192 586.801,734.835C587.052,733.36 587.37,732.06 587.658,730.91C587.816,730.277 587.973,729.49 588.073,728.963C587.584,728.789 586.837,728.544 586.147,728.404C583.803,727.927 581.686,728.189 579.812,728.011C576.669,727.712 573.951,726.695 571.634,723.165C570.423,721.319 570.938,718.838 572.784,717.626C574.63,716.415 577.111,716.93 578.323,718.776C579.182,720.085 580.317,720.065 581.542,720.102C583.429,720.16 585.496,720.107 587.742,720.564C591.843,721.398 593.853,722.825 594.895,724.255L595.89,726.281L596.156,727.787C596.187,728.212 596.184,728.659 596.146,729.13C595.977,731.278 594.645,734.315 594.391,738.764C594.28,740.708 592.786,742.29 590.851,742.511C589.173,742.703 572.002,744.597 568.172,744.185L566.742,743.88L565.639,743.316L564.86,742.607L564.331,741.819C563.711,740.618 563.235,738.415 563.066,735.837C562.763,731.21 563.167,725.123 563.229,724.214C563.377,722.011 565.287,720.344 567.489,720.493C569.692,720.642 571.359,722.551 571.21,724.754C571.155,725.579 570.773,731.11 571.049,735.314C571.066,735.574 571.081,735.827 571.096,736.071Z" style="fill:white;"/>
            <path d="M718.254,673.17C718.179,670.963 719.91,669.111 722.116,669.036C724.323,668.962 726.175,670.692 726.249,672.899L726.965,694.023C727.04,696.229 725.309,698.081 723.103,698.156C720.897,698.231 719.045,696.5 718.97,694.294L718.254,673.17Z" style="fill:white;"/>
            <path d="M787.914,699.194C787.925,695.187 787.78,685.741 786.266,680.716C785.869,679.396 785.026,677.811 784.799,677.395C773.462,673.871 757.126,674.139 743.869,674.459C734.242,674.691 726.12,674.922 722.164,674.111C720.001,673.668 718.606,671.552 719.049,669.389C719.492,667.227 721.608,665.831 723.771,666.274C728.365,667.216 739.012,666.468 750.876,666.323C763.554,666.169 777.527,666.647 787.642,669.904L789.474,670.842C790.119,671.311 790.751,671.938 791.333,672.735C792.316,674.083 793.215,676.047 793.926,678.409C796.312,686.328 796.771,699.131 795.584,703.272L795.009,704.742L794.193,705.907L793.219,706.713L792.288,707.153L790.437,707.367L788.851,706.912L787.643,706.071L786.613,704.828C785.402,702.982 785.917,700.5 787.763,699.289C787.813,699.256 787.863,699.224 787.914,699.194Z" style="fill:white;"/>
            <path d="M619.711,767.839C619.706,767.819 619.7,767.799 619.695,767.779C619.148,765.64 620.44,763.459 622.579,762.912C624.717,762.364 626.898,763.656 627.445,765.795C627.547,766.191 627.746,766.652 627.87,766.92C628.153,766.874 628.62,766.79 628.936,766.693C630.121,766.327 631.384,765.774 632.666,765.295C637.191,763.603 641.786,763.084 645.458,766.756C648.678,769.976 649.855,773.019 649.928,775.663C650.01,778.597 648.772,781.279 646.472,783.579C641.576,788.475 630.931,791.552 625.026,792.474C622.471,792.872 620.602,792.807 619.95,792.644L618.582,792.046L617.672,791.226L617.053,790.193L616.752,788.868C616.208,779.217 616.36,779.57 618.262,770.188C618.459,769.22 618.99,768.405 619.711,767.839ZM625.511,774.669C624.619,779.031 624.392,780.42 624.542,784.462C628.02,783.86 633.216,782.492 637.277,780.366C638.696,779.623 639.972,778.796 640.903,777.833C641.426,777.292 641.86,776.741 641.925,776.075C642.035,774.944 641.218,773.83 639.801,772.413C638.789,771.401 637.512,772.078 636.261,772.504C634.372,773.146 632.483,774.017 630.769,774.491C628.865,775.019 627.088,775.101 625.511,774.669Z" style="fill:white;"/>
            <path d="M619.012,715.711L619.864,715.286L620.598,715.137C620.683,715.126 620.805,715.112 620.961,715.096C621.255,715.055 621.728,714.987 622.277,714.9C622.748,714.825 623.213,714.836 623.656,714.921C626.212,714.837 629.851,714.936 632.845,715.831C637.562,717.242 640.79,720.337 640.236,725.622C639.8,729.779 638.526,732.44 636.833,734.258C635.038,736.183 632.681,737.27 629.726,737.825C625.72,738.576 620.254,738.203 613.801,739.742C612.523,740.047 611.176,739.704 610.199,738.826C609.221,737.947 608.738,736.644 608.906,735.341C610.17,725.521 609.138,725.957 612.856,717.276C613.725,715.246 616.078,714.304 618.107,715.173C618.439,715.316 618.742,715.497 619.012,715.711ZM621.869,723.046C621.579,723.084 621.412,723.102 621.353,723.107L620.419,723.08L619.28,722.735L619.26,722.72C617.782,726.467 617.668,727.887 617.402,730.991C620.613,730.593 623.505,730.492 626.009,730.257C628.144,730.057 629.93,730.011 631.035,728.742C631.763,727.907 632.087,726.625 632.28,724.788C632.377,723.859 631.382,723.744 630.553,723.496C627.498,722.583 622.949,722.943 621.869,723.046Z" style="fill:white;"/>
            <path d="M658.583,716.613C658.414,716.13 658.336,715.608 658.366,715.066C658.492,712.862 660.383,711.174 662.587,711.3C669.423,711.688 674.916,711.667 678.972,712.32C682.596,712.904 685.291,714.072 687.166,715.928C690.068,718.802 691.417,723.806 689.546,733.032C689.447,733.52 689.324,733.948 689.184,734.325L688.523,735.65L687.846,736.502L686.984,737.234L685.057,738.078L682.696,738.217C679.819,737.975 674.225,735.249 665.099,740.6C663.651,741.449 662.363,741.85 661.259,741.979L659.116,741.906L657.08,741.139C655.31,740.102 653.913,738.059 653.344,735.228C652.689,731.972 653.073,727.446 654.117,723.784C654.932,720.931 656.205,718.6 657.467,717.377C657.802,717.052 658.181,716.797 658.583,716.613ZM664.158,719.391C664.443,720.699 664.066,722.121 663.035,723.121C662.622,723.521 662.358,724.301 662.06,725.179C661.383,727.169 660.965,729.687 661.012,731.879C661.023,732.397 661.135,733.059 661.243,733.588C668.03,729.656 673.334,729.105 677.323,729.359C679.076,729.471 680.572,729.75 681.827,729.989C681.877,729.999 681.929,730.008 681.981,730.018C682.626,726.495 682.751,724.064 682.033,722.369C681.354,720.767 679.648,720.507 677.415,720.174C674.002,719.666 669.563,719.645 664.158,719.391Z" style="fill:white;"/>
            <path d="M705.643,715.22C705.676,715.062 705.718,714.904 705.77,714.747C706.47,712.653 708.738,711.521 710.832,712.221C711.347,712.393 711.947,712.317 712.595,712.261C713.823,712.154 715.15,711.929 716.522,711.791C720.241,711.415 724.163,711.672 727.775,714.395C731.84,717.46 735.867,724.3 737.703,739.645C737.851,740.883 737.413,742.12 736.518,742.989C735.623,743.858 734.374,744.26 733.141,744.076C717.398,741.727 717.355,738.815 702.719,745.236C701.458,745.79 700.001,745.655 698.862,744.88C697.723,744.106 697.063,742.8 697.115,741.423C697.286,736.863 696.917,734.1 696.756,731.774C696.462,727.535 696.612,724.464 700.4,717.034C701.379,715.112 703.703,714.321 705.643,715.22ZM707.885,719.645C707.814,719.992 707.696,720.336 707.527,720.667C704.804,726.009 704.525,728.173 704.736,731.221C704.825,732.501 704.967,733.903 705.062,735.618C715.114,731.824 717.896,733.284 729,735.285C727.586,727.008 725.586,722.763 722.959,720.783C720.672,719.059 718.079,719.634 715.801,719.933C712.974,720.304 710.374,720.503 708.296,719.808C708.155,719.761 708.017,719.706 707.885,719.645Z" style="fill:white;"/>
            <path d="M751.305,720.37C750.458,719.598 749.947,718.469 750.002,717.236C750.1,715.031 751.969,713.319 754.175,713.417C773.414,714.268 779.075,714.449 780.883,714.613L782.884,715.053L784.22,715.934C787.809,719.304 789.827,721.957 790.722,723.979C791.19,725.038 791.418,726.007 791.478,726.885L791.404,728.49L790.94,730.055C790.026,732.144 787.681,734.018 783.783,735.195C777.777,737.009 766.974,737.881 756.16,742.056C754.908,742.539 753.498,742.363 752.403,741.586C751.309,740.809 750.678,739.535 750.722,738.194L751.305,720.37ZM759.267,721.651C759.128,725.912 758.907,732.674 758.907,732.674C765.903,730.574 772.557,729.532 777.625,728.473C779.649,728.05 781.922,727.252 783.063,726.827C782.435,725.926 781.173,724.22 779.553,722.56C777.705,722.475 772.206,722.225 759.267,721.651Z" style="fill:white;"/>
            <path d="M668.34,765.084C668.763,763.423 670.231,762.159 672.031,762.075C678.153,761.791 682.609,760.981 685.877,761.188C689.232,761.402 691.705,762.484 693.655,764.87C695.279,766.857 696.567,770.075 697.343,775.358L697.414,776.566L697.257,777.801L696.862,778.982L696.272,780.028C695.351,781.359 693.732,782.555 691.399,783.375C686.032,785.263 675.332,785.407 666.89,787.563L665.698,787.768L664.42,787.757L663.114,787.465L661.9,786.883L660.721,785.91L659.886,784.809C659.363,783.948 658.958,782.844 658.735,781.544C657.821,776.222 660.315,766.129 660.593,765.063C661.149,762.927 663.335,761.644 665.471,762.2C666.93,762.58 667.991,763.719 668.34,765.084ZM668.34,767.058C668.338,767.065 668.336,767.072 668.334,767.079C668.168,767.719 666.989,772.221 666.612,776.372C666.527,777.316 666.572,778.514 666.63,779.406C673.46,777.918 681.376,777.534 686.659,776.393C687.573,776.196 688.649,775.798 689.279,775.55C688.843,772.832 688.362,771.035 687.461,769.932C686.693,768.993 685.535,769.116 684.049,769.156C681.102,769.234 677.31,769.839 672.403,770.067C670.473,770.156 668.797,768.86 668.34,767.058Z" style="fill:white;"/>
            <path d="M713.431,766.318L713.449,766.142L713.775,765.206L714.314,764.375L715.08,763.647C715.472,763.348 716.474,762.752 718.292,761.804C719.731,761.052 721.421,761.265 722.62,762.208C725.219,761.88 728.344,761.683 731.301,762.112C732.107,762.229 740.359,763.547 742.045,764.351L743.043,764.977L743.707,765.652L744.336,766.776L744.58,767.913C745.075,775.147 743.267,778.969 741.007,781.001C738.5,783.256 734.971,783.754 731.119,783.241C729.026,782.962 726.827,782.411 724.819,782.104C724.155,782.003 723.521,781.929 722.934,781.936C722.748,781.938 722.472,781.978 722.319,782.002C720.557,785.632 718.154,787.042 716.015,787.416C712.751,787.987 709.124,785.989 706.993,782.365C703.804,776.94 704.17,768.976 711.887,766.497C712.401,766.332 712.924,766.277 713.431,766.318ZM717.048,771.008C716.795,772.418 715.791,773.646 714.333,774.114C712.961,774.555 713.005,775.915 713.328,777.013C713.549,777.766 714.276,778.697 714.698,779.195C714.853,778.976 715.03,778.703 715.149,778.454C715.452,777.818 715.809,777.267 716.208,776.786L717.643,775.456C718.588,774.788 719.681,774.343 720.908,774.116C723.211,773.69 726.218,774.189 729.285,774.801C730.893,775.121 732.525,775.462 734.007,775.443C734.646,775.435 735.268,775.446 735.696,775.016C736.036,774.675 736.22,774.148 736.38,773.461C736.53,772.811 736.621,772.065 736.655,771.212C734.296,770.776 730.579,770.092 730.152,770.03C725.933,769.417 721.307,770.486 719.262,770.852C718.68,770.957 718.226,771.02 717.928,771.041L717.048,771.008Z" style="fill:white;"/>
            <path d="M753.628,764.305C754.127,762.454 755.904,761.177 757.875,761.368C776.497,763.17 778.121,765.499 779.377,766.751C781.524,768.889 782.713,770.58 783.259,771.834L783.67,773.054L783.836,774.491L783.726,775.543L783.399,776.586L782.465,778.048L781.338,779.031C780.566,779.555 779.492,780.014 778.126,780.333C774.837,781.101 768.869,781.107 762.709,782.616C755.247,784.444 750.586,784.517 747.852,783.837C746.401,783.477 745.309,782.906 744.481,782.252L743.148,780.866L742.271,779.201C741.588,777.3 741.783,774.933 742.776,772.564C744.424,768.633 748.252,764.654 748.775,764.263C750.249,763.159 752.24,763.226 753.628,764.305ZM755.034,768.507C754.829,769.268 754.399,769.974 753.76,770.516C753.58,770.713 751.729,772.755 750.716,774.535C750.472,774.962 750.226,775.6 750.059,776.072C750.601,776.165 751.396,776.269 752.14,776.25C754.272,776.195 757.1,775.754 760.805,774.846C765.438,773.711 769.964,773.372 773.419,772.981C773.664,772.953 773.92,772.919 774.176,772.88C774.032,772.725 773.883,772.57 773.731,772.418C773.439,772.127 773.039,771.882 771.68,771.5C769.221,770.811 764.933,770.089 757.104,769.331C756.321,769.255 755.612,768.958 755.034,768.507Z" style="fill:white;"/>
            <path d="M797.211,759.895C797.145,758.382 797.945,756.895 799.38,756.158C800.878,755.388 802.639,755.658 803.837,756.701C804.582,756.699 806.321,756.688 807.654,756.627C813.922,756.338 821.781,756.918 825.925,764.953L826.496,766.594L826.543,768.416L825.91,770.353L825.168,771.458L824.344,772.311C822.811,773.681 819.987,774.958 816.856,775.938C813.64,776.946 808.806,778.228 807.791,778.495C802.79,783.267 798.424,783.169 795.497,781.645C792.607,780.141 790.556,776.694 790.206,772.716C789.759,767.641 792.009,762.075 797.211,759.895ZM803.53,764.723C803.07,765.863 802.092,766.778 800.81,767.105C798.584,767.674 798.003,770.062 798.175,772.015C798.267,773.061 798.43,774.153 799.19,774.549C799.422,774.67 799.688,774.502 800.027,774.347C800.815,773.988 801.652,773.336 802.581,772.4L803.467,771.697L804.91,771.008C806.705,770.336 810.596,769.492 814.174,768.394C815.284,768.054 816.676,767.449 817.681,766.984C816.163,765.348 814.139,764.823 812.172,764.644C809.847,764.432 807.536,764.661 805.662,764.731C804.899,764.759 804.184,764.758 803.53,764.723Z" style="fill:white;"/>
            <path d="M599.941,822.279C600.045,821.814 600.235,821.36 600.514,820.939C601.736,819.101 604.221,818.601 606.06,819.823C606.572,820.164 606.977,820.497 607.295,820.806L608.092,821.754L608.76,823.172L608.947,824.413L608.682,826.027L607.994,827.306L607.03,828.283L605.697,829.085C603.997,829.868 600.507,830.449 596.364,830.694C588.046,831.186 576.775,830.718 575.478,830.664C535.227,828.979 528.274,827.784 524.221,827.098C522.045,826.73 520.577,824.663 520.945,822.487C521.313,820.31 523.38,818.842 525.556,819.21C529.53,819.883 536.349,821.019 575.812,822.671C577.145,822.727 589.457,823.25 597.503,822.595C598.293,822.531 599.161,822.408 599.941,822.279Z" style="fill:white;"/>
            <path d="M667.063,806.469C667.13,806.39 667.2,806.314 667.274,806.239C668.829,804.672 671.364,804.663 672.931,806.218C673.919,807.198 677.072,808.545 679.611,810.321C682.784,812.542 685.017,815.403 685.247,818.224C685.479,821.052 684.075,824.812 677.577,828.118C668.159,832.91 661.598,829.652 658.128,824.874C655.892,821.796 654.979,817.891 655.412,814.599C655.762,811.928 656.968,809.639 658.849,808.13C660.766,806.593 663.468,805.715 667.063,806.469ZM669.308,813.364C668.356,814.26 666.986,814.673 665.622,814.344C664.896,814.168 664.319,814.075 663.902,814.337C663.272,814.734 663.275,815.622 663.308,816.481C663.392,818.641 664.597,821.132 666.972,822.043C668.773,822.735 671.094,822.441 673.95,820.988C675.093,820.406 675.98,819.853 676.633,819.298C676.803,819.154 676.993,818.944 677.128,818.787C676.908,818.514 676.512,818.043 676.188,817.767C675.287,816.997 674.19,816.297 673.119,815.653C671.736,814.823 670.392,814.047 669.308,813.364Z" style="fill:white;"/>
            <path d="M339.922,239.194C338.156,237.869 337.799,235.359 339.124,233.594C340.449,231.828 342.958,231.47 344.724,232.795C348.887,235.92 349.022,236.28 357.165,244.456C358.7,240.989 360.858,236.564 363.842,232.701C367.621,227.809 372.658,223.839 379.14,222.89C381.324,222.57 383.358,224.084 383.677,226.269C383.997,228.453 382.483,230.486 380.299,230.806C374.736,231.62 370.969,236.01 368.213,240.424C364.936,245.671 363.07,251.197 362.022,253.238C361.439,254.374 360.349,255.163 359.088,255.362C357.827,255.561 356.547,255.146 355.642,254.246C343.93,242.592 344.462,242.601 339.922,239.194Z" style="fill:white;"/>
            <path d="M712.517,233.482C726.438,229.581 733.61,232.186 737.168,235.927C740.388,239.313 741.176,244.065 740.896,248.122C740.613,252.221 739.211,255.5 738.963,255.865C731.856,266.321 724.275,269.278 718.028,268.679C708.311,267.745 700.833,257.633 700.341,248.594C700.147,245.039 700.987,241.681 702.914,239.011C704.865,236.309 707.938,234.218 712.475,233.488C712.489,233.486 712.503,233.484 712.517,233.482ZM711.36,242.099C710.532,242.499 709.878,243.032 709.401,243.693C708.509,244.929 708.239,246.513 708.329,248.159C708.629,253.68 712.858,260.145 718.793,260.715C722.915,261.111 727.43,258.47 732.115,251.706C732.289,251.081 733.108,247.97 732.913,245.519C732.798,244.08 732.446,242.571 731.371,241.44C730.316,240.331 728.627,239.685 726.164,239.517C722.777,239.285 718.256,239.986 712.224,241.923C711.938,242.015 711.648,242.073 711.36,242.099Z" style="fill:white;"/>
            <path d="M700.182,218.843C700.599,219.122 702.39,220.417 706.766,224.716C708.341,226.262 708.364,228.797 706.817,230.372C705.27,231.947 702.736,231.97 701.161,230.423C695.321,224.688 695.249,225.205 694.764,224.72C693.203,223.159 693.203,220.624 694.764,219.063C696.248,217.58 698.611,217.506 700.182,218.843Z" style="fill:white;"/>
            <path d="M690.238,261.714C689.337,262.064 687.325,262.889 684.593,264.258C682.619,265.247 680.214,264.447 679.225,262.473C678.236,260.499 679.036,258.094 681.009,257.105C685.165,255.024 687.385,254.14 688.621,253.809L690.29,253.535L691.651,253.651L693.033,254.188L694.037,254.957C695.634,256.48 695.694,259.014 694.17,260.612C693.125,261.708 691.605,262.08 690.238,261.714Z" style="fill:white;"/>
            <path d="M708.429,276.024C708.118,273.838 709.641,271.812 711.827,271.501C714.013,271.191 716.039,272.714 716.349,274.9L718.453,289.724C718.763,291.91 717.24,293.936 715.055,294.246C712.869,294.556 710.842,293.034 710.532,290.848L708.429,276.024Z" style="fill:white;"/>
            <path d="M747.176,274.754C747.432,274.71 748.129,274.586 748.729,274.43C750.867,273.878 753.051,275.165 753.603,277.302C754.156,279.44 752.869,281.624 750.731,282.176C748.467,282.761 747.171,282.846 746.114,282.711C744.719,282.533 743.689,281.861 740.918,280.489C738.939,279.51 738.128,277.108 739.108,275.13C740.088,273.151 742.489,272.34 744.468,273.32C745.71,273.935 746.854,274.572 747.176,274.754Z" style="fill:white;"/>
            <path d="M756.055,262.838C754.467,264.371 751.933,264.327 750.399,262.739C748.866,261.151 748.91,258.616 750.498,257.083C751.059,256.541 753.949,253.749 758.11,251C759.952,249.783 762.435,250.291 763.652,252.133C764.869,253.975 764.361,256.459 762.519,257.675C758.987,260.009 756.531,262.378 756.055,262.838Z" style="fill:white;"/>
            <path d="M720.867,224.043C719.306,225.604 716.772,225.604 715.21,224.043C713.649,222.482 713.649,219.947 715.21,218.386L715.932,217.665C717.493,216.104 720.028,216.104 721.589,217.665C723.15,219.226 723.15,221.761 721.589,223.322L720.867,224.043Z" style="fill:white;"/>
            <path d="M756.816,232.478C758.383,234.033 758.392,236.568 756.837,238.135C755.282,239.702 752.748,239.712 751.181,238.157L750.459,237.441C748.892,235.886 748.882,233.351 750.437,231.784C751.993,230.217 754.527,230.207 756.094,231.762L756.816,232.478Z" style="fill:white;"/>
            <path d="M502.606,383.84C501.963,383.493 501.268,383.129 500.564,382.781C492.067,378.583 476.324,371.581 458.119,361.454C407.094,333.073 406.021,334.33 354.123,312.171C347.929,317.325 330.96,331.024 307.087,345.855C296.051,352.71 181.107,424.018 167.417,428.7C165.328,429.415 163.052,428.299 162.338,426.21C161.624,424.121 162.739,421.845 164.828,421.131C178.367,416.5 291.952,345.839 302.865,339.059C329.397,322.577 347.238,307.523 350.855,304.47C352.011,303.495 353.618,303.255 355.008,303.85C409.528,327.18 409.888,325.473 462.008,354.463C482.705,365.976 500.207,373.424 507.402,377.295C509.96,378.671 511.486,379.897 512.054,380.648L512.862,382.265L512.965,384.109L512.366,385.709L511.416,386.787L510.604,387.32L509.613,387.714C508.983,387.897 507.991,388.044 506.601,388.044C504.393,388.044 502.601,386.252 502.601,384.044C502.601,383.976 502.603,383.908 502.606,383.84Z" style="fill:white;"/>
            <path d="M408.669,338.299C407.562,337.256 407.102,335.624 407.626,334.092C408.341,332.003 410.617,330.887 412.705,331.602C414.343,332.162 415.324,332.727 415.901,333.231L416.705,334.113L417.338,335.339L417.575,336.403L417.535,337.768C417.422,338.467 417.073,339.409 416.429,340.693C414.114,345.308 411.87,347.757 409.766,348.897C407.148,350.317 404.44,350.278 401.271,348.829C399.265,347.912 396.939,346.256 394.047,344.221C391.685,349.44 388.782,352.122 385.904,353.027C383.193,353.88 380.196,353.488 376.987,351.606C374.769,350.305 372.352,348.182 369.773,345.334C366.485,351.655 362.629,354.5 358.989,355.428C354.28,356.628 349.339,354.8 344.941,351.5C341.785,349.132 338.908,346.031 336.668,343.486C332.928,349.579 329.433,354.498 326.084,357.74C322.544,361.167 318.99,362.873 315.545,362.924C312.487,362.968 309.347,361.787 306.212,358.802C303.761,356.468 301.21,352.887 298.595,347.807C297.584,345.844 298.357,343.43 300.32,342.42C302.283,341.409 304.697,342.182 305.707,344.145C307.802,348.214 309.766,351.139 311.729,353.008C313.009,354.227 314.179,354.943 315.428,354.925C317.152,354.899 318.749,353.707 320.52,351.993C324.304,348.329 328.205,342.24 332.575,334.736C333.201,333.66 334.292,332.938 335.527,332.781C336.761,332.624 337.999,333.05 338.874,333.935C340.801,335.882 344.885,341.456 349.742,345.101C352.068,346.846 354.523,348.31 357.013,347.675C358.235,347.364 359.377,346.502 360.517,345.094C362.091,343.15 363.535,340.314 364.877,336.402C365.356,335.005 366.565,333.986 368.022,333.751C369.48,333.516 370.948,334.102 371.843,335.276C374.75,339.095 377.394,342.067 379.838,343.9C381.236,344.949 382.367,345.753 383.503,345.396C384.224,345.169 384.782,344.498 385.393,343.583C386.45,341.998 387.379,339.768 388.249,336.858C388.613,335.642 389.533,334.671 390.727,334.241C391.922,333.811 393.25,333.974 394.305,334.68C398.157,337.256 401.08,339.571 403.51,340.981C404.045,341.292 404.544,341.551 405.022,341.731C405.366,341.861 405.66,342.024 405.955,341.864C406.916,341.343 407.7,340.148 408.669,338.299Z" style="fill:white;"/>
            <path d="M471.378,270.609C471.378,270.609 467.155,268.299 463.588,267.623C460.079,266.957 455.976,266.968 453.249,270.131C450.488,273.334 449.235,279.101 450.095,288.729C450.203,289.927 449.765,291.111 448.903,291.95C448.041,292.79 446.847,293.197 445.652,293.059C419.691,290.055 406.414,291.374 400.082,293.877C399.537,294.093 399.011,294.381 398.56,294.663C403.303,296.274 410.035,296.836 417.433,296.911C439.068,297.129 466.155,292.626 470.325,291.934C471.826,291.685 473.339,292.31 474.227,293.546C477.895,298.647 480.698,301.718 483.502,303.201C486.246,304.653 488.873,304.173 492.261,303.078C496.839,301.599 502.445,298.974 510.267,296.36C512.361,295.661 514.629,296.792 515.329,298.886C516.028,300.98 514.897,303.248 512.803,303.948C503.235,307.145 496.909,310.331 491.754,311.524C487.357,312.542 483.629,312.32 479.76,310.272C476.579,308.589 473.214,305.479 469.214,300.221C460.929,301.546 436.958,305.108 417.352,304.91C407.236,304.808 398.236,303.623 392.741,300.903L391.633,300.2L390.694,299.28L389.957,298.164L389.462,296.886L389.252,295.497L389.348,294.074L389.739,292.695L390.39,291.413C391.69,289.341 394.775,286.715 401.422,285.11C408.742,283.343 421.235,282.515 441.86,284.6C441.605,270.465 446.485,263.916 452.012,261.128C456.818,258.703 462.587,258.997 467.393,260.296C472.253,261.609 476.045,263.956 476.978,264.896C478.533,266.464 478.523,268.998 476.956,270.553C475.415,272.082 472.939,272.098 471.378,270.609Z" style="fill:white;"/>
            <path d="M683.847,325.987C689.34,323.524 709.398,314.876 722.806,314.053C731.236,313.536 737.25,316.292 738.814,322.407C740.646,329.563 738.267,334.387 734.554,337.702C735.385,337.835 736.225,337.981 737.064,338.141C742.689,339.213 748.28,340.976 751.81,343.538C754.411,345.426 756.043,347.769 756.543,350.437C757.023,353.007 756.506,356.048 754.107,359.499C753.382,360.542 752.205,361.179 750.935,361.215C675.626,363.327 640.443,368.749 620.024,369.703C605.204,370.396 597.566,368.763 588.854,362.628C586.647,361.073 583.852,355.561 588.192,350.301C589.932,348.191 593.081,345.97 598.685,344.601C604.736,343.124 614.13,342.534 628.459,344.092C627.944,342.257 627.481,340.165 627.234,337.985C626.726,333.503 627.164,328.702 629.477,324.718C633.113,318.454 641.741,313.421 660.918,316.662C672.087,318.55 678.629,322.515 683.847,325.987ZM696.262,329.404C696.587,330.071 696.73,330.837 696.635,331.628C696.403,333.563 694.823,335.01 692.948,335.142C692.881,335.362 692.795,335.579 692.688,335.791C691.693,337.761 689.285,338.553 687.314,337.558C680.806,334.272 675.005,327.157 659.584,324.55C652.08,323.282 646.595,323.356 642.63,324.448C639.508,325.309 637.516,326.804 636.396,328.734C634.945,331.233 634.864,334.273 635.183,337.084C635.739,341.995 637.668,346.347 638.066,347.253C638.65,348.581 638.47,350.12 637.595,351.277C636.72,352.433 635.288,353.026 633.852,352.825C611.395,349.692 600.596,351.23 595.77,354.225C594.908,354.76 594.329,355.296 594.043,355.873C593.96,356.04 593.933,356.264 593.924,356.409C601.039,361.273 607.494,362.28 619.651,361.712C639.891,360.766 674.624,355.439 748.496,353.281C748.707,352.759 748.777,352.281 748.66,351.821C748.511,351.239 748.066,350.786 747.538,350.344C746.591,349.553 745.347,348.904 743.948,348.329C735.376,344.806 721.592,344.395 720.005,344.34C718.133,344.276 716.557,342.921 716.211,341.081C715.866,339.24 716.843,337.406 718.564,336.667C719.738,336.163 722.798,335.449 725.835,333.951C729.036,332.373 732.421,329.691 731.064,324.39C730.763,323.213 729.762,322.688 728.532,322.368C727.043,321.98 725.26,321.918 723.296,322.038C715.078,322.543 704.192,326.263 696.262,329.404Z" style="fill:white;"/>
            <path d="M437.625,754.053C438.514,752.659 440.219,751.908 441.918,752.31C444.067,752.818 445.399,754.974 444.892,757.122C444.7,757.935 444.765,758.467 444.701,758.778L443.968,760.491L443.065,761.43L442.008,762.027L440.802,762.325L439.143,762.289C342.586,750.642 294.757,771.3 270.726,780.707C263.947,783.36 258.867,785.1 255.075,785.302C251.446,785.496 248.67,784.505 246.452,782.27C240.65,776.424 238.851,768.664 240.365,759.826C242.378,748.081 250.521,734.207 261.963,721.119C278.754,701.911 302.561,684.33 323.095,677.415C338.081,672.368 351.439,673.083 359.968,681.438C361.545,682.983 361.571,685.518 360.027,687.095C358.482,688.672 355.947,688.698 354.37,687.153C347.747,680.665 337.285,681.078 325.648,684.997C306.253,691.528 283.845,708.242 267.986,726.384C257.661,738.195 250.066,750.578 248.251,761.177C247.213,767.234 248.155,772.628 252.131,776.635C253.054,777.565 254.351,777.438 256.033,777.15C259.08,776.628 262.921,775.171 267.81,773.257C292.188,763.715 340.499,742.786 437.625,754.053Z" style="fill:white;"/>
            <path d="M358.367,688.112C357.04,688.527 355.534,688.238 354.444,687.223C352.828,685.719 352.737,683.186 354.241,681.57L355.553,680.606L357.535,680.103C359.088,679.985 362.74,680.521 367.794,681.848C381.265,685.388 406.109,694.331 426.569,706.434C440.722,714.807 452.728,724.773 457.995,735.369C464.059,747.569 469.507,750.492 470.976,751.218C475.766,753.584 477.733,750.828 481.125,748.258C486.379,744.278 493.597,739.657 508.953,741.075C510.465,741.214 511.768,742.198 512.316,743.614C512.864,745.03 512.562,746.635 511.538,747.756C499.395,761.047 499.577,761.731 486.053,771.418C486.288,775.039 486.472,781.986 485.035,787.868C483.415,794.502 479.679,799.64 473.355,800.246C469.843,800.583 465.183,799.441 459.236,795.487C454.443,792.3 453.08,793.043 440.828,761.902C440.02,759.848 441.032,757.524 443.086,756.715C445.141,755.907 447.465,756.919 448.273,758.973C459.017,786.283 459.462,786.031 463.666,788.826C467.486,791.366 470.335,792.499 472.592,792.283C475.51,792.003 476.516,789.031 477.264,785.97C478.899,779.274 478.012,770.964 477.902,769.889C477.756,768.457 478.39,767.057 479.562,766.223C491.253,757.901 493.188,756.095 499.562,749.06C490.901,750.06 486.819,754.055 483.261,756.698C480.523,758.731 477.929,760.084 474.792,760.201C472.698,760.279 470.314,759.814 467.433,758.39C465.598,757.484 458.403,754.162 450.831,738.93C446.122,729.456 435.15,720.805 422.496,713.32C402.746,701.636 378.765,693.002 365.761,689.586C362.532,688.738 359.248,688.238 358.367,688.112Z" style="fill:white;"/>
            <path d="M264.482,725.547C263.123,723.807 263.433,721.291 265.173,719.933C266.912,718.574 269.428,718.883 270.787,720.623C271.337,721.328 279.209,736.839 287.553,743.095C289.251,744.367 290.847,745.401 292.432,744.891C294.318,744.284 295.608,741.988 296.978,737.973C299.069,731.842 297.438,724.229 294.106,719.444C292.461,717.082 290.471,715.257 288.105,715.709C285.936,716.123 283.84,714.699 283.425,712.53C283.011,710.362 284.435,708.265 286.604,707.851C291.868,706.845 297.012,709.618 300.671,714.872C305.287,721.501 307.447,732.062 304.549,740.556C302.005,748.012 298.385,751.379 294.881,752.507C291.074,753.731 286.834,752.554 282.755,749.496C273.789,742.775 265.073,726.304 264.482,725.547Z" style="fill:white;"/>
            <path d="M361.901,677.593C365.308,673.142 371.709,663.275 376.056,656.464C366.414,657.625 362.924,659.13 345.823,669.388C335.28,675.713 327.264,680.425 323.044,682.891C322.76,684.455 321.554,685.765 319.903,686.101C317.872,686.513 316.563,686.473 316.016,686.352L314.601,685.767L313.377,684.554L312.768,683.023L312.765,681.596L313.198,680.329L314.139,679.094C315.671,677.602 324.803,672.669 341.708,662.528C364.679,648.748 365.02,649.606 383.441,647.622C384.966,647.457 386.45,648.179 387.262,649.479C388.074,650.779 388.072,652.429 387.256,653.727C385.99,655.743 371.446,678.829 366.934,684.099C366.306,684.832 365.769,685.332 365.398,685.61L363.703,686.427L362.548,686.542L361.529,686.372L360.636,685.982L359.857,685.391L359.152,684.485L358.697,683.322L358.603,681.939L358.96,680.279C359.409,678.877 360.56,677.893 361.901,677.593Z" style="fill:white;"/>
            <path d="M355.006,761.145C353.446,759.584 353.446,757.049 355.008,755.488C356.569,753.928 359.104,753.928 360.665,755.49C372.998,767.83 373.618,769.49 383.379,779.591C385.931,772.211 386.8,767.921 386.745,764.781C386.678,760.954 385.235,758.923 384.265,755.056C383.728,752.914 385.031,750.74 387.172,750.203C389.313,749.666 391.488,750.969 392.025,753.11C393.169,757.675 394.665,760.124 394.744,764.641C394.822,769.087 393.531,775.621 388.704,788.346C388.221,789.618 387.125,790.558 385.794,790.84C384.462,791.122 383.079,790.709 382.122,789.742C367.904,775.386 368.966,775.113 355.006,761.145Z" style="fill:white;"/>
            <path d="M326.67,768.255C326.054,771.132 325.958,778.599 327.499,783.666C327.83,784.754 328.685,786.129 328.908,786.479C329.077,786.423 329.385,786.312 329.599,786.191C330.611,785.617 331.723,784.611 333.012,783.155C340.973,774.167 346.038,769.294 351.397,758.001C352.343,756.007 354.731,755.156 356.725,756.102C358.72,757.049 359.571,759.436 358.624,761.431C352.88,773.537 347.535,778.823 339.001,788.459C333.604,794.553 329.09,795.157 326.103,794.032C324.037,793.254 322.245,791.509 320.98,788.924C319.675,786.258 318.874,782.553 318.52,778.818C318.012,773.444 318.416,768.038 319.022,765.862L319.408,764.779L319.948,763.843L320.683,763.051L321.541,762.488C323.519,761.507 325.921,762.316 326.902,764.293C327.554,765.607 327.416,767.107 326.67,768.255Z" style="fill:white;"/>
        </g>
    </g>
</svg>
