<?xml version="1.0" encoding="UTF-8" standalone="no"?>
<!DOCTYPE svg PUBLIC "-//W3C//DTD SVG 1.1//EN" "http://www.w3.org/Graphics/SVG/1.1/DTD/svg11.dtd">
<svg width="100%" height="100%" viewBox="0 0 402 287" version="1.1" xmlns="http://www.w3.org/2000/svg" xmlns:xlink="http://www.w3.org/1999/xlink" xml:space="preserve" xmlns:serif="http://www.serif.com/" style="fill-rule:evenodd;clip-rule:evenodd;stroke-linecap:round;stroke-linejoin:round;stroke-miterlimit:1.5;">
    <g transform="matrix(1,0,0,1,-395.333,-407.14)">
        <g transform="matrix(0.967328,0.253527,-0.253527,0.967328,159.906,-130.845)">
            <path d="M367.962,474.908C365.253,468.264 368.448,460.671 375.092,457.962C381.736,455.253 389.329,458.448 392.038,465.092C409.664,508.325 409.917,532.328 483.407,582.945C526.263,612.462 577.433,614.248 629.707,605.693C684.857,596.668 741.251,576.038 791.521,561.032C798.396,558.98 805.644,562.895 807.696,569.77C809.748,576.645 805.833,583.893 798.958,585.946C747.694,601.248 690.146,622.148 633.906,631.352C574.79,641.026 517.125,637.738 468.659,604.357C387.836,548.69 387.346,522.455 367.962,474.908Z" style="fill:white;"/>
            <path d="M720,540L795.239,573.489L760,640" style="fill:none;stroke:white;stroke-width:26px;"/>
        </g>
    </g>
</svg>
