<?xml version="1.0" encoding="UTF-8" standalone="no"?>
<!DOCTYPE svg PUBLIC "-//W3C//DTD SVG 1.1//EN" "http://www.w3.org/Graphics/SVG/1.1/DTD/svg11.dtd">
<svg width="100%" height="100%" viewBox="0 0 346 245" version="1.1" xmlns="http://www.w3.org/2000/svg" xmlns:xlink="http://www.w3.org/1999/xlink" xml:space="preserve" xmlns:serif="http://www.serif.com/" style="fill-rule:evenodd;clip-rule:evenodd;stroke-linejoin:round;stroke-miterlimit:2;">
    <g transform="matrix(1,0,0,1,-97,-997)">
        <path d="M156.571,1065.65C153.822,1067.56 149.29,1067.4 146.956,1069.88C143.92,1073.11 143.375,1078.46 142.153,1082.53C139.774,1090.45 137.059,1098.33 134.23,1106.1C123.866,1134.57 112.578,1163.94 106.783,1193.74C104.724,1204.33 100,1219.21 100,1230C100,1232.53 165.564,1226.4 182.801,1224.73C198.285,1223.22 215.324,1223.76 230.027,1225.42C233.84,1225.85 237.625,1225.95 241.409,1226.62C242.15,1226.75 244.675,1226.75 245.223,1227.3C245.551,1227.62 245.282,1229.24 245.282,1229.72C245.282,1234.25 242.819,1237.42 248.562,1238.06C257.121,1239.03 266.688,1238.85 275.178,1237.61C277.075,1237.33 280.633,1237.77 282.313,1236.74C285.672,1234.69 284.847,1230.83 286.857,1228.82C287.515,1228.16 292.934,1228.27 293.873,1228.08C301.97,1226.47 310.637,1225.73 318.888,1225.48C339.144,1224.84 401.829,1219.45 430,1207.98C444.832,1201.94 437.504,1188.45 436.718,1185.6C430.97,1164.77 376.209,1060 376.209,1060C376.209,1060 364.26,1060.64 364.26,1060L266.821,1100L156.571,1065.65Z" style="fill:white;"/>
        <path d="M365.345,1057.2L376.049,1057C377.222,1056.94 378.324,1057.57 378.868,1058.61C378.868,1058.61 433.836,1163.87 439.61,1184.8C439.89,1185.82 440.98,1188.17 441.641,1191.06C442.423,1194.48 442.604,1198.53 440.862,1202.28C439.373,1205.49 436.493,1208.57 431.131,1210.76C402.695,1222.34 339.429,1227.84 318.982,1228.47C310.893,1228.73 302.397,1229.44 294.46,1231.03C293.975,1231.12 292.453,1231.18 290.855,1231.25C290.166,1231.28 289.234,1231.37 288.664,1231.43C288.589,1231.6 288.531,1231.79 288.467,1231.98C288.285,1232.52 288.132,1233.09 287.952,1233.66C287.286,1235.78 286.285,1237.83 283.878,1239.3C282.868,1239.92 281.43,1240.28 279.858,1240.4C278.358,1240.52 276.698,1240.42 275.611,1240.58C266.875,1241.85 257.032,1242.04 248.226,1241.04C245.423,1240.73 243.922,1239.8 243.053,1238.8C242.017,1237.6 241.639,1236.08 241.792,1234.19C241.892,1232.96 242.279,1231.45 242.282,1229.75C241.697,1229.68 241.117,1229.62 240.888,1229.58C237.165,1228.92 233.442,1228.82 229.691,1228.4C215.183,1226.76 198.37,1226.23 183.091,1227.71C167.479,1229.23 112.467,1234.35 101.621,1233.5C99.695,1233.35 98.55,1232.78 98.136,1232.43C97.28,1231.7 97,1230.84 97,1230C97,1219.04 101.747,1203.92 103.838,1193.17C109.662,1163.21 120.994,1133.69 131.411,1105.08C134.221,1097.36 136.917,1089.54 139.28,1081.67C140.026,1079.18 140.531,1076.23 141.478,1073.56C142.24,1071.4 143.277,1069.42 144.771,1067.83C146.042,1066.48 147.75,1065.63 149.63,1065.02C151.422,1064.44 153.434,1064.18 154.86,1063.19C155.619,1062.66 156.58,1062.52 157.463,1062.79L266.681,1096.81L363.121,1057.22C363.84,1056.93 364.636,1056.93 365.345,1057.2ZM367.007,1058.8C367.172,1059.17 367.26,1059.58 367.26,1060C367.26,1059.59 367.185,1059.19 367.007,1058.8ZM103.077,1227.53C104.141,1227.57 105.544,1227.61 106.9,1227.58C124.183,1227.26 168.764,1223.08 182.51,1221.74C198.2,1220.21 215.465,1220.76 230.363,1222.43C234.239,1222.87 238.084,1222.99 241.93,1223.67C242.584,1223.78 244.494,1223.84 245.543,1224.15C246.364,1224.4 246.965,1224.79 247.344,1225.17C247.746,1225.58 248.163,1226.22 248.315,1227.14C248.437,1227.87 248.282,1229.25 248.282,1229.72C248.282,1231.24 248.048,1232.62 247.875,1233.83C247.829,1234.14 247.798,1234.56 247.78,1234.85C248.067,1234.93 248.507,1235.04 248.898,1235.08C257.21,1236.02 266.501,1235.84 274.746,1234.64C275.775,1234.49 277.254,1234.52 278.704,1234.46C279.479,1234.43 280.262,1234.48 280.749,1234.18C282.014,1233.41 282.156,1232.12 282.481,1231.03C282.976,1229.36 283.585,1227.84 284.735,1226.69C285.116,1226.31 285.951,1225.78 287.221,1225.55C288.958,1225.24 292.542,1225.29 293.286,1225.14C301.543,1223.5 310.38,1222.74 318.794,1222.48C338.86,1221.85 400.963,1216.56 428.869,1205.2C432.187,1203.85 434.182,1202.11 435.228,1200.14C436.794,1197.19 436.241,1193.91 435.527,1191.36C434.888,1189.07 434.062,1187.25 433.826,1186.4C428.535,1167.22 381.479,1076.6 374.432,1063.08C371.589,1063.19 366.413,1063.36 364.46,1063.16L267.96,1102.78C267.314,1103.04 266.595,1103.07 265.928,1102.86L156.913,1068.9C155.546,1069.56 153.983,1069.99 152.438,1070.44C151.206,1070.79 149.953,1071.08 149.14,1071.94C147.934,1073.22 147.281,1074.96 146.75,1076.75C146.081,1079 145.638,1081.36 145.027,1083.39C142.631,1091.37 139.898,1099.3 137.049,1107.13C126.738,1135.45 115.493,1164.66 109.728,1194.31C107.854,1203.95 103.696,1217.19 103.077,1227.53Z" style="fill:rgb(250,0,0);"/>
        <path d="M164.854,1054.61C176.306,1056.42 188.216,1054.13 199.773,1054.87C211.253,1055.6 222.55,1060.68 232.596,1065.97C240.784,1070.28 249.782,1075.28 256.505,1081.74C258.86,1084.01 261.509,1087.19 263.362,1089.58C263.44,1089.68 265.045,1092.84 265.279,1092.67C266.755,1091.62 267.919,1089.36 269.231,1088.04C273.246,1084.03 277.95,1079.78 282.648,1076.7C296.655,1067.49 313.568,1060.53 329.797,1055.91C335.551,1054.28 341.324,1053.13 347.323,1053.13C348.437,1053.13 352.01,1052.44 352.916,1053.17C360.156,1058.96 366.028,1068.07 371.391,1075.5C387.697,1098.07 397.857,1123.28 408.423,1148.87C411.627,1156.63 414.97,1164.33 418.223,1172.07C418.388,1172.46 421.497,1178.49 420.811,1179.18C420.298,1179.69 417.132,1179.28 416.366,1179.28C411.818,1179.28 407.273,1179.23 402.731,1179.49C385.247,1180.52 367.81,1180.15 350.307,1180.31C335.697,1180.43 321.08,1183.26 306.933,1186.65C290.597,1190.56 277.209,1193.07 265.358,1204.92C264.923,1205.36 262.24,1203.85 261.861,1203.7C258.276,1202.27 254.703,1200.86 251.17,1199.29C237.286,1193.15 222.063,1187.99 207.165,1185.07C193.4,1182.37 179.384,1180.08 165.391,1179C159.608,1178.56 152.273,1177.2 146.699,1179.53C138.676,1182.9 130.212,1187.1 122.769,1191.65C120.656,1192.94 115.215,1195.96 114.232,1196.78C114.055,1196.93 112.732,1199.47 112.732,1198.31C112.732,1198.31 134.887,1143.95 143.574,1120C151.721,1097.54 164.854,1054.61 164.854,1054.61Z" style="fill:white;"/>
        <path d="M265.662,1087.65C266.14,1087.02 266.619,1086.41 267.11,1085.92C271.265,1081.77 276.139,1077.38 281,1074.19C295.255,1064.82 312.461,1057.72 328.976,1053.03C334.999,1051.32 341.044,1050.13 347.323,1050.13C348.121,1050.13 350.153,1049.79 351.618,1049.84C353.038,1049.89 354.161,1050.32 354.79,1050.83C362.232,1056.78 368.311,1066.11 373.823,1073.74C390.267,1096.51 400.54,1121.92 411.195,1147.72C414.398,1155.48 417.738,1163.17 420.988,1170.9C421.13,1171.24 423.258,1175.47 423.741,1177.52C424.191,1179.43 423.481,1180.75 422.932,1181.3C422.517,1181.71 421.76,1182.2 420.649,1182.36C419.431,1182.53 417.046,1182.28 416.366,1182.28C411.877,1182.28 407.39,1182.23 402.906,1182.49C385.372,1183.51 367.886,1183.15 350.333,1183.31C335.949,1183.43 321.56,1186.23 307.632,1189.57C291.879,1193.34 278.907,1195.62 267.48,1207.05C266.906,1207.62 265.843,1208.21 264.327,1207.93C263.236,1207.73 261.106,1206.63 260.747,1206.49C257.128,1205.04 253.522,1203.62 249.955,1202.04C236.272,1195.98 221.271,1190.89 206.588,1188.01C192.938,1185.34 179.038,1183.06 165.161,1181.99C159.81,1181.58 153.017,1180.14 147.859,1182.3C139.972,1185.61 131.651,1189.74 124.333,1194.21C122.469,1195.35 117.879,1197.87 116.443,1198.87C116.158,1199.31 115.609,1200.15 115.297,1200.48C114.614,1201.22 113.865,1201.48 113.389,1201.56C112.472,1201.72 111.675,1201.5 110.989,1200.98C110.538,1200.64 109.732,1199.93 109.732,1198.31C109.732,1197.92 109.807,1197.53 109.953,1197.17C109.953,1197.17 132.079,1142.89 140.754,1118.98C148.883,1096.57 161.985,1053.74 161.985,1053.74C162.422,1052.31 163.846,1051.42 165.323,1051.65C176.683,1053.45 188.499,1051.14 199.964,1051.87C211.858,1052.63 223.584,1057.84 233.993,1063.32C242.421,1067.76 251.664,1072.93 258.585,1079.58C261.008,1081.91 263.735,1085.17 265.662,1087.65ZM119.234,1190.26C120.008,1189.8 120.697,1189.4 121.205,1189.09C128.774,1184.46 137.38,1180.19 145.538,1176.77C151.529,1174.26 159.406,1175.53 165.621,1176.01C179.73,1177.09 193.863,1179.4 207.742,1182.12C222.855,1185.08 238.3,1190.32 252.384,1196.55C255.884,1198.1 259.424,1199.5 262.975,1200.91C263.114,1200.97 263.852,1201.31 264.478,1201.6C276.441,1190.34 289.882,1187.65 306.234,1183.73C320.6,1180.29 335.445,1177.43 350.281,1177.31C367.734,1177.15 385.122,1177.52 402.556,1176.5C407.157,1176.23 411.76,1176.28 416.366,1176.28C416.474,1176.28 416.675,1176.28 416.926,1176.29C416.268,1174.82 415.532,1173.4 415.457,1173.23C412.202,1165.48 408.857,1157.78 405.65,1150.01C395.175,1124.65 385.126,1099.64 368.959,1077.25C363.856,1070.19 358.32,1061.52 351.487,1055.87C350.733,1055.93 348.022,1056.13 347.323,1056.13C341.605,1056.13 336.103,1057.24 330.618,1058.8C314.675,1063.33 298.056,1070.16 284.295,1079.2C279.76,1082.18 275.228,1086.29 271.353,1090.16C269.935,1091.58 268.617,1093.97 267.023,1095.11C266.245,1095.66 264.75,1096.29 263.16,1094.85C262.721,1094.45 261.228,1091.88 260.868,1091.26C259.1,1088.99 256.631,1086.02 254.426,1083.9C247.901,1077.63 239.146,1072.81 231.198,1068.63C221.515,1063.53 210.647,1058.57 199.583,1057.86C188.802,1057.17 177.717,1059.08 166.976,1057.92C164.079,1067.32 153.398,1101.71 146.394,1121.02C139.909,1138.9 125.93,1173.7 119.234,1190.26Z" style="fill:rgb(250,0,0);"/>
        <g transform="matrix(1,0,0,1,-94.2599,27.5723)">
            <g transform="matrix(1,0,0,1,79.4776,-64.8835)">
                <path d="M330.164,1037.31C326.691,1040.84 320.819,1040.67 316.874,1043.39C299.787,1055.16 289.774,1067.35 285.876,1088.46C284.351,1096.73 284.366,1107.03 286.268,1115.21C288.84,1126.27 296.67,1133.49 305.688,1138.91C330.152,1153.62 359.301,1152.17 383.605,1137.16C388.844,1133.93 391.914,1129.17 395.395,1124.23C399.232,1118.78 404.098,1113.76 405.827,1107.13C411.491,1085.42 397.752,1055.95 378.808,1044.29C364.296,1035.36 347.608,1037.75 331.709,1037.75L330.164,1037.31Z" style="fill:white;"/>
                <path d="M330.975,1034.42C330.975,1034.42 332.12,1034.74 332.122,1034.74C348.438,1034.71 365.499,1032.58 380.38,1041.73C400.313,1054 414.689,1085.04 408.73,1107.89C406.909,1114.87 401.889,1120.22 397.847,1125.95C394.127,1131.23 390.779,1136.26 385.181,1139.71C359.904,1155.33 329.587,1156.78 304.142,1141.48C294.437,1135.65 286.114,1127.8 283.346,1115.89C281.357,1107.34 281.331,1096.56 282.926,1087.92C286.987,1065.92 297.368,1053.18 315.173,1040.91C317.389,1039.39 320.122,1038.62 322.813,1037.79C324.727,1037.2 326.639,1036.62 328.026,1035.21C328.793,1034.43 329.923,1034.13 330.975,1034.42ZM330.894,1040.63C329.044,1041.99 326.848,1042.82 324.579,1043.52C322.48,1044.17 320.305,1044.67 318.576,1045.86C302.205,1057.13 292.561,1068.78 288.826,1089.01C287.371,1096.89 287.375,1106.73 289.19,1114.53C291.566,1124.75 298.903,1131.34 307.233,1136.34C330.718,1150.45 358.698,1149.02 382.028,1134.61C386.908,1131.6 389.7,1127.1 392.942,1122.5C396.576,1117.34 401.287,1112.65 402.924,1106.37C408.292,1085.8 395.192,1057.89 377.236,1046.84C363.217,1038.22 347.067,1040.75 331.709,1040.75C331.434,1040.75 331.162,1040.71 330.898,1040.63L330.894,1040.63Z" style="fill:rgb(250,0,0);"/>
            </g>
        </g>
        <g transform="matrix(1,0,0,1,-94.2599,27.5723)">
            <g transform="matrix(1,0,0,1,79.4776,-64.8835)">
                <path d="M337.305,1050.6C352.512,1048.53 368.437,1052.3 380.045,1062.49C383.265,1065.32 385.775,1069.23 388.072,1072.85C393.526,1081.45 396.293,1087.43 395.458,1097.78C395.17,1101.35 395.072,1105.22 393.392,1108.5C389.572,1115.96 382.582,1119.82 375.933,1123.98C373.332,1125.61 368.548,1127.17 362.543,1128.36C349.29,1130.98 329.866,1132.03 316.388,1129.6C311.046,1128.63 306.595,1127.09 303.632,1125C301.162,1123.26 299.619,1121.12 299.071,1118.65C298.183,1114.65 295.056,1105.73 293.635,1098.82C292.929,1095.38 292.674,1092.37 293.056,1090.42C294.381,1083.67 302.384,1066.94 307.59,1062.31C323.997,1047.72 330.251,1051.56 337.305,1050.6ZM338.116,1056.55C331.833,1057.4 326.191,1053.8 311.578,1066.79C307.001,1070.86 300.108,1085.64 298.944,1091.58C298.561,1093.53 299.273,1096.89 300.185,1100.55C301.756,1106.86 304.165,1113.91 304.929,1117.35C305.256,1118.82 306.534,1119.88 308.252,1120.82C310.616,1122.11 313.793,1123.03 317.454,1123.69C330.281,1126.01 348.766,1124.97 361.379,1122.47C366.46,1121.46 370.549,1120.27 372.75,1118.9C378.496,1115.3 384.751,1112.21 388.052,1105.77C389.373,1103.18 389.251,1100.1 389.478,1097.29C390.19,1088.46 387.662,1083.4 383.006,1076.07C381.007,1072.92 378.888,1069.46 376.085,1067C365.781,1057.95 351.615,1054.71 338.116,1056.55Z" style="fill:rgb(250,0,0);"/>
            </g>
        </g>
        <g transform="matrix(1,0,0,1,-94.2599,27.5723)">
            <g transform="matrix(1,0,0,1,73.9215,-52.5031)">
                <path d="M380.556,1132.62C385.599,1145.72 399.378,1164.66 405.827,1176.97C408.328,1181.75 410.552,1187.03 415.135,1190.32C422.675,1195.74 429.647,1192.94 436.255,1187.51C439.201,1185.09 442.174,1183.41 441.784,1179.25C441.436,1175.54 436.503,1171.4 434.422,1168.4C426.73,1157.33 418.889,1146.68 409.508,1136.99C406.278,1133.66 402.465,1126.66 395.556,1120.62" style="fill:white;"/>
                <path d="M377.756,1133.7L383.356,1131.54C388.365,1144.55 402.078,1163.35 408.484,1175.58C410.774,1179.95 412.69,1184.87 416.886,1187.89C423.139,1192.38 428.869,1189.7 434.35,1185.19C435.462,1184.28 436.585,1183.48 437.501,1182.6C438.319,1181.81 438.929,1180.93 438.797,1179.53C438.67,1178.17 437.555,1176.83 436.434,1175.46C434.842,1173.52 433.036,1171.67 431.958,1170.11C424.36,1159.17 416.621,1148.65 407.353,1139.08C404.16,1135.79 400.411,1128.85 393.581,1122.88L397.532,1118.36C404.519,1124.48 408.395,1131.53 411.662,1134.91C421.158,1144.71 429.101,1155.48 436.886,1166.69C438.12,1168.47 440.374,1170.65 442.049,1172.9C443.542,1174.91 444.587,1177.01 444.771,1178.97C445.269,1184.29 441.928,1186.73 438.161,1189.83C430.423,1196.19 422.213,1199.11 413.384,1192.76C408.414,1189.19 405.882,1183.54 403.169,1178.36C396.677,1165.97 382.833,1146.88 377.756,1133.7Z" style="fill:rgb(250,0,0);"/>
            </g>
        </g>
        <path d="M262.851,1214.26C261.254,1214.71 259.793,1212.18 258.66,1211.5C253.398,1208.36 245.524,1205.48 239.157,1204.33C232.766,1203.19 225.758,1200.7 219.553,1200C217.277,1199.74 214.75,1200.05 212.262,1199.41C207.082,1198.08 202.473,1195.17 197.245,1193.92C181.093,1190.04 162.821,1190.06 146.916,1195.05C138.28,1197.75 130.167,1201.84 123.065,1207.42C121.708,1208.48 117.277,1211 116.978,1212.79" style="fill:white;"/>
        <path d="M262.305,1212.34L263.398,1216.18C262.155,1216.54 260.9,1216.15 259.765,1215.24C258.964,1214.6 258.258,1213.59 257.636,1213.22C252.555,1210.19 244.951,1207.41 238.804,1206.3C232.454,1205.16 225.493,1202.68 219.329,1201.99C216.966,1201.72 214.346,1202.01 211.764,1201.35C206.595,1200.02 201.995,1197.12 196.778,1195.86C180.968,1192.07 163.082,1192.07 147.514,1196.95C139.11,1199.59 131.212,1203.56 124.301,1208.99C123.494,1209.62 121.589,1210.77 120.132,1211.97C119.607,1212.41 118.927,1213.21 118.927,1213.21C118.927,1213.21 118.946,1213.15 118.951,1213.12L115.005,1212.46C115.149,1211.6 115.769,1210.56 116.788,1209.59C118.326,1208.13 120.85,1206.61 121.83,1205.84C129.122,1200.11 137.45,1195.92 146.318,1193.14C162.559,1188.05 181.218,1188.02 197.711,1191.97C202.95,1193.23 207.57,1196.14 212.76,1197.48C215.154,1198.09 217.588,1197.76 219.778,1198.01C226.023,1198.72 233.078,1201.21 239.511,1202.37C246.097,1203.55 254.241,1206.54 259.685,1209.78C260.251,1210.12 260.91,1210.8 261.592,1211.49C261.917,1211.83 262.582,1212.33 262.582,1212.33C262.582,1212.33 262.399,1212.31 262.305,1212.34Z" style="fill:rgb(255,208,98);"/>
        <path d="M257.79,1222.54C255.437,1224.26 249.401,1221.85 246.765,1220.93C237.107,1217.58 227.156,1214.62 217.084,1212.73C187.063,1207.1 155.371,1200.66 126.365,1214.31C121.061,1216.81 116.71,1218.62 112.534,1222.2" style="fill:white;"/>
        <path d="M256.612,1220.93L258.969,1224.16C257.941,1224.91 256.455,1225.23 254.74,1225.12C251.817,1224.93 248.072,1223.5 246.109,1222.82C236.544,1219.5 226.69,1216.57 216.715,1214.7C187.099,1209.14 155.832,1202.65 127.217,1216.12C122.09,1218.53 117.871,1220.26 113.835,1223.71L111.232,1220.68C115.549,1216.98 120.031,1215.08 125.513,1212.5C154.91,1198.67 187.027,1205.06 217.453,1210.76C227.622,1212.67 237.67,1215.66 247.42,1219.04C248.928,1219.56 251.596,1220.61 253.978,1221.01C254.637,1221.12 255.27,1221.17 255.831,1221.13C256.134,1221.1 256.411,1221.07 256.612,1220.93Z" style="fill:rgb(255,208,98);"/>
        <path d="M279.871,1208.74C284.504,1209.22 288.72,1206.45 292.865,1204.67C299.099,1201.98 305.148,1199.59 311.498,1197.28C329.695,1190.67 350.457,1187.12 369.79,1186.67C381.339,1186.4 392.541,1187.31 404.036,1187.77C407.758,1187.93 411.466,1188.34 415.16,1188.8C415.897,1188.89 420.934,1190.07 419.686,1190.07" style="fill:white;"/>
        <path d="M279.663,1210.73L280.079,1206.75C282.069,1206.96 283.964,1206.43 285.812,1205.69C287.946,1204.85 290.018,1203.72 292.074,1202.83C298.344,1200.13 304.428,1197.72 310.815,1195.4C329.211,1188.71 350.2,1185.12 369.743,1184.67C381.335,1184.4 392.579,1185.3 404.117,1185.78C407.895,1185.93 411.658,1186.35 415.408,1186.82C416.071,1186.9 419.827,1187.78 420.586,1188.12C422.277,1188.88 421.896,1190.44 421.701,1190.86C421.587,1191.11 421.156,1192.07 419.686,1192.07L419.686,1188.07C419.242,1188.07 419.005,1188.24 418.895,1188.3C418.441,1188.55 418.205,1188.89 418.063,1189.2C417.837,1189.69 417.795,1190.23 418.046,1190.81C418.128,1191 418.944,1191.77 418.944,1191.77C418.944,1191.77 415.428,1190.85 414.912,1190.79C411.273,1190.33 407.62,1189.92 403.954,1189.77C392.502,1189.31 381.342,1188.4 369.837,1188.67C350.715,1189.11 330.179,1192.62 312.181,1199.16C305.868,1201.45 299.853,1203.84 293.656,1206.51C289.207,1208.42 284.637,1211.25 279.663,1210.73Z" style="fill:rgb(255,208,98);"/>
        <path d="M271.833,1220C278.185,1222.35 312.474,1209.11 318.532,1207.34C336.325,1202.12 354.227,1195.68 372.953,1195.68C383.555,1195.68 393.54,1197.8 403.64,1200.82C406.959,1201.81 410.172,1202.66 413.618,1203.05C414.309,1203.13 419.628,1204.16 417.313,1203.7" style="fill:white;"/>
        <path d="M417.703,1201.75L417.706,1201.74C418.147,1201.83 418.352,1201.87 418.383,1201.88C419.82,1202.25 419.868,1203.49 419.879,1203.58C419.938,1204.07 419.832,1204.53 419.545,1204.95C419.375,1205.2 419.107,1205.49 418.631,1205.68C418.507,1205.73 418.315,1205.79 418.044,1205.81C418.005,1205.82 417.845,1205.84 417.577,1205.8C417.382,1205.76 413.934,1205.1 413.392,1205.04C409.827,1204.63 406.501,1203.76 403.068,1202.73C393.155,1199.77 383.358,1197.68 372.953,1197.68C354.418,1197.68 336.707,1204.09 319.095,1209.26C314.846,1210.5 296.734,1217.37 284.067,1220.58C280.689,1221.43 277.684,1222.03 275.393,1222.21C273.55,1222.36 272.095,1222.23 271.14,1221.88L272.527,1218.12C273.096,1218.34 273.969,1218.32 275.067,1218.23C277.185,1218.05 279.962,1217.49 283.086,1216.7C295.702,1213.51 313.738,1206.66 317.969,1205.42C335.944,1200.14 354.036,1193.68 372.953,1193.68C383.752,1193.68 393.924,1195.82 404.213,1198.9C407.417,1199.86 410.518,1200.68 413.845,1201.06C414.282,1201.11 416.662,1201.56 417.703,1201.75ZM417.688,1201.83C417.029,1201.89 416.688,1202.21 416.526,1202.36C415.893,1202.95 415.748,1203.64 415.981,1204.4C415.988,1204.43 416.558,1204.95 416.984,1205.35L417.688,1201.83Z" style="fill:rgb(255,208,98);"/>
        <path d="M265.61,1104.76C263.984,1124.68 266.335,1144.83 264.765,1164.77C264.25,1171.33 263.892,1177.88 263.579,1184.43C263.501,1186.08 262.477,1195.22 262.85,1192.99" style="fill:white;"/>
        <path d="M260.924,1192.67L264.822,1193.32C264.68,1194.17 264.385,1194.53 264.341,1194.58C264.022,1194.99 263.665,1195.15 263.384,1195.24C262.885,1195.4 262.409,1195.37 261.955,1195.16C261.862,1195.12 260.687,1194.55 260.779,1193C260.852,1191.75 261.519,1185.65 261.582,1184.34C261.895,1177.76 262.254,1171.19 262.772,1164.62C264.342,1144.67 261.99,1124.52 263.617,1104.6L267.603,1104.92C265.977,1124.84 268.329,1144.99 266.759,1164.93C266.245,1171.46 265.889,1177.99 265.577,1184.53C265.514,1185.85 264.846,1191.98 264.772,1193.23C264.77,1193.26 264.768,1193.3 264.768,1193.3C264.768,1193.3 263.72,1191.57 263.594,1191.51C263.14,1191.31 262.665,1191.27 262.167,1191.43C261.887,1191.52 261.532,1191.69 261.214,1192.09C261.181,1192.13 261.021,1192.46 260.924,1192.67Z" style="fill:rgb(255,208,98);"/>
    </g>
</svg>
